<svg id="レイヤー_1" data-name="レイヤー 1" xmlns="http://www.w3.org/2000/svg" viewBox="0 0 702.26 434.44"><defs><style>.cls-1{fill:#fbeeb4;}.cls-2{fill:#d2812e;}.cls-3{fill:#a56522;}.cls-4{fill:#8b3e8d;}.cls-5{fill:#c50018;}.cls-6{fill:#fff000;}.cls-7{fill:#009fe6;}.cls-8{fill:#63ac6b;}.cls-9{fill:#e6e6e6;}.cls-10{fill:#b3b3b3;}.cls-11{fill:#da8f41;}.cls-12{fill:#251e1c;}.cls-13{fill:#fff;}.cls-14{fill:#c72d2a;}.cls-15{fill:#ccc;}</style></defs><title>nijihachi_rgb</title><path class="cls-1" d="M118.29,366.08c-16.62,8.69-13.37,33.47,4.7,41.4a24.81,24.81,0,0,0,21.17,0,68.59,68.59,0,0,1,3-13.28c-3,.39-9.81.23-12.48-8.33-3.16-10.12,6.67-13.67,12.21-16.24l.56-.28h0C147.23,369.15,134.79,357.45,118.29,366.08Z" transform="translate(-25.02 -20.72)"/><path class="cls-2" d="M330.62,418.36l-.1.26Z" transform="translate(-25.02 -20.72)"/><path class="cls-2" d="M330.48,418.74l-.1.26Z" transform="translate(-25.02 -20.72)"/><path class="cls-2" d="M330.29,419.22l0,0Z" transform="translate(-25.02 -20.72)"/><path class="cls-2" d="M331,417.22l-.13.36Z" transform="translate(-25.02 -20.72)"/><path class="cls-2" d="M331.57,415.65l-.15.46Z" transform="translate(-25.02 -20.72)"/><path class="cls-2" d="M331.33,416.38l-.2.59Z" transform="translate(-25.02 -20.72)"/><path class="cls-2" d="M330.36,419l-.06.15Z" transform="translate(-25.02 -20.72)"/><path class="cls-2" d="M330.84,417.78l-.16.44Z" transform="translate(-25.02 -20.72)"/><path class="cls-2" d="M198.67,445.36l-.64,0Z" transform="translate(-25.02 -20.72)"/><path class="cls-2" d="M197.68,445.3l-.58-.08Z" transform="translate(-25.02 -20.72)"/><path class="cls-2" d="M199.84,445.32c-.29,0-.59,0-.89,0C199.25,445.36,199.54,445.35,199.84,445.32Z" transform="translate(-25.02 -20.72)"/><path class="cls-2" d="M194.89,444.66q-.46-.16-.91-.36Q194.43,444.49,194.89,444.66Z" transform="translate(-25.02 -20.72)"/><path class="cls-2" d="M196.74,445.16l-.58-.12Z" transform="translate(-25.02 -20.72)"/><path class="cls-2" d="M207.06,431.41c0,.18.09.36.13.54l.08-.57Z" transform="translate(-25.02 -20.72)"/><path class="cls-2" d="M195.81,444.95l-.62-.19Z" transform="translate(-25.02 -20.72)"/><path class="cls-2" d="M200.71,445.18c-.23,0-.47.08-.7.11C200.25,445.26,200.48,445.23,200.71,445.18Z" transform="translate(-25.02 -20.72)"/><path class="cls-2" d="M205.45,442.39c-.14.17-.29.33-.44.49C205.16,442.72,205.31,442.56,205.45,442.39Z" transform="translate(-25.02 -20.72)"/><path class="cls-2" d="M196.79,415.11c1.18-4.77,2.76-13.44,1.38-21.81-2-12.11-13.38-17.26-13.49-17.31a1,1,0,1,1,.84-1.9,28,28,0,0,1,12.4,11.9c-.8-8.22-1.17-14.25-1.21-14.89a1,1,0,0,1,2.08-.12c0,.36,2,31.46,6.71,51,3.17.11,12.52.08,17.31-3.57,5.83-4.44,5.83-14.29,3.47-20.67s-7.91-16.65-7.77-30.52a28.34,28.34,0,0,1,10.2-22,44.6,44.6,0,0,1-9.16-9l.14-.44c-7.14-.45-17.13-2.35-29.6-8.5-.53-.26-1.06-.53-1.58-.81-4.25,7.81-14.29,25.41-25,38.45a90.64,90.64,0,0,0-16.32,29.3,68.59,68.59,0,0,0-3,13.28,24.81,24.81,0,0,1-21.17,0c-18.07-7.93-21.32-32.71-4.7-41.4s28.94,3.06,29.12,3.23c4.66-2.46,7.3-7.85,3.4-14.59A14,14,0,0,0,131,349.84s-13.61-10.31-30.28,3-14.45,38.93-2.37,54.38c10.93,14,31.18,15.85,45.52,8.52,0,.33,0,.67,0,1a156,156,0,0,1,28.51-3.55A118.45,118.45,0,0,1,196.79,415.11Z" transform="translate(-25.02 -20.72)"/><path class="cls-2" d="M204.85,443.06a7.32,7.32,0,0,1-.66.58A7.32,7.32,0,0,0,204.85,443.06Z" transform="translate(-25.02 -20.72)"/><path class="cls-2" d="M205.88,441.82v0l-.23.33C205.73,442,205.81,441.92,205.88,441.82Z" transform="translate(-25.02 -20.72)"/><path class="cls-2" d="M201.57,445l-.55.14Z" transform="translate(-25.02 -20.72)"/><path class="cls-2" d="M202.39,444.67l-.51.19Z" transform="translate(-25.02 -20.72)"/><path class="cls-2" d="M204,443.75c-.18.13-.36.26-.55.38C203.66,444,203.84,443.88,204,443.75Z" transform="translate(-25.02 -20.72)"/><path class="cls-2" d="M203.2,444.28l-.5.26Z" transform="translate(-25.02 -20.72)"/><path class="cls-2" d="M204.34,425.78l-.1-.36a167.28,167.28,0,0,1-3.81-18.89,69.47,69.47,0,0,1-2.41,12,1,1,0,0,1-1,.74,1,1,0,0,1-.3,0h0l0,.07A22.76,22.76,0,0,1,204.34,425.78Z" transform="translate(-25.02 -20.72)"/><path class="cls-1" d="M320.31,422.36c2.37,1.38,9.84,6.46,10,15.43a14.3,14.3,0,0,1-.35,3.58,1,1,0,0,1-1,.8l-.24,0a1,1,0,0,1-.78-1.25,12.24,12.24,0,0,0,.29-3.06c-.21-9.18-9.5-14-9.59-14a1,1,0,0,1-.56-.9c-3,0-12-.21-17.34-4.54-5.7-4.61-5.83-14.29-3.47-20.67s7.91-16.65,7.77-30.52a28.38,28.38,0,0,0-9.81-21.7,55.59,55.59,0,0,1-5.76,3.58v0l-.85.45-.36.2h0a61.69,61.69,0,0,1-12.14,4.68c-.37,7-6,8.52-10.52,9a31.72,31.72,0,0,1-7.9,0c-4.56-.4-10.19-2-10.53-9.06a60.14,60.14,0,0,1-11.48-4.72h0l-.32-.18-1-.56v0a56.29,56.29,0,0,1-5.69-3.71,28.34,28.34,0,0,0-10.2,22c-.14,13.87,5.41,24.14,7.77,30.52s2.36,16.23-3.47,20.67c-4.79,3.65-14.14,3.68-17.31,3.57.36,1.47.73,2.87,1.12,4.19s.75,2.4,1.14,3.48,0,1.56-.46,1.72a44.55,44.55,0,0,0,4.08,8.1c6.09,9.3,13.69,10.56,21.16,8.61,0,0-.87-4.58-1-6.31a.83.83,0,0,1,.79-.87.85.85,0,0,1,.87.79,55.48,55.48,0,0,0,1.35,7.3,19.26,19.26,0,0,0,6.63,1.26,12.79,12.79,0,0,0,4.78-.85s1.23-5.57,1.52-7.71a.86.86,0,0,1,.87-.79.82.82,0,0,1,.79.87c-.13,1.71-.93,6.31-.93,6.31a9.85,9.85,0,0,0,13.34-8.45h17.52c6.07,9.15,13.63,10.39,21,8.45,0,0-.87-4.58-1-6.31a.83.83,0,0,1,.79-.87.85.85,0,0,1,.87.79,55.48,55.48,0,0,0,1.35,7.3,19.26,19.26,0,0,0,6.63,1.26,12.79,12.79,0,0,0,4.78-.85s1.23-5.57,1.52-7.71a.86.86,0,0,1,.87-.79.82.82,0,0,1,.79.87c-.13,1.71-.93,6.31-.93,6.31,3.13,1.48,8.92.62,11.75-3.78,6.46,2.84,14.16,0,13.46-10.1s-10.84-14.93-10.84-14.93l0,0v0l.06-.15,0,0,.1-.26,0-.12.1-.26.06-.15.16-.44.07-.2.13-.36.09-.25.2-.59.09-.27.15-.46.06-.19h0a81.3,81.3,0,0,0-9.8-1.67C321.36,416.62,320.86,419.47,320.31,422.36Zm-58.61,16.5h0a1,1,0,0,1-1-1c-.21-9.18-9.5-14-9.59-14a1,1,0,0,1-.55-1.13c1.3-6.71,2.39-13.32,3.24-19.64a1,1,0,1,1,2.06.28c-.82,6.13-1.87,12.52-3.12,19,2.37,1.38,9.84,6.46,10,15.43A1,1,0,0,1,261.7,438.86Zm16.57-.55a1,1,0,0,1-1.42-.4,52.19,52.19,0,0,1-3.42-7.55c-2.21-6-4.11-14.85-5.82-27a1,1,0,0,1,2.06-.29c1.66,11.86,3.58,20.82,5.71,26.61a50.18,50.18,0,0,0,3.28,7.25A1,1,0,0,1,278.27,438.31Z" transform="translate(-25.02 -20.72)"/><path class="cls-1" d="M192.2,445.47l-.25.13Z" transform="translate(-25.02 -20.72)"/><path class="cls-1" d="M179.31,445.14l-.2-.1Z" transform="translate(-25.02 -20.72)"/><path class="cls-1" d="M178.9,444.93l-.17-.09Z" transform="translate(-25.02 -20.72)"/><path class="cls-1" d="M178.56,444.74l-.14-.08Z" transform="translate(-25.02 -20.72)"/><path class="cls-1" d="M179.77,445.36l-.22-.1Z" transform="translate(-25.02 -20.72)"/><path class="cls-1" d="M192.65,445.23l-.23.13Z" transform="translate(-25.02 -20.72)"/><path class="cls-1" d="M193,445l-.2.12Z" transform="translate(-25.02 -20.72)"/><path class="cls-1" d="M178.28,444.57l-.11-.07Z" transform="translate(-25.02 -20.72)"/><path class="cls-1" d="M194,444.29l0,0Z" transform="translate(-25.02 -20.72)"/><path class="cls-1" d="M193.8,444.45l-.11.09Z" transform="translate(-25.02 -20.72)"/><path class="cls-1" d="M193.93,444.34l-.08.07Z" transform="translate(-25.02 -20.72)"/><path class="cls-1" d="M205.8,430.36c-.54-1.39-1-2.94-1.47-4.58a22.76,22.76,0,0,0-7.66-6.48l0-.07a1,1,0,0,1-.68-1.29c.19-.64.47-1.61.77-2.82a118.45,118.45,0,0,0-24.37-1.91,156,156,0,0,0-28.51,3.55c1.07,14.75,9.42,25.9,23.28,28.73,6.8,1.39,10.66-1.19,10.66-1.19s-1.13-5.31-1.31-7.16a.83.83,0,1,1,1.65-.19c.67,4.11,1.7,8.43,1.71,8.47a16,16,0,0,0,6.46,1.39,12.88,12.88,0,0,0,5.47-1.15c0-.05,1.49-6.72,1.78-8.66a.84.84,0,0,1,.92-.73.83.83,0,0,1,.73.92c-.37,2.78-1.28,7.1-1.28,7.1q.45.2.91.36l.3.1.62.19.35.09.58.13.36.07.58.08.35,0,.64,0h.27c.3,0,.6,0,.89,0l.17,0c.24,0,.47-.06.7-.11l.3-.07.55-.14.32-.11.51-.19.31-.13.5-.26.27-.15c.19-.12.37-.24.55-.38l.17-.12a7.32,7.32,0,0,0,.66-.58l.17-.18c.15-.16.3-.32.44-.49l.2-.27.23-.33a9.05,9.05,0,0,0,1.09-2.24,14,14,0,0,0,.55-5.32,15.41,15.41,0,0,0-.34-2.28c0-.18-.08-.36-.13-.54A1.4,1.4,0,0,1,205.8,430.36Z" transform="translate(-25.02 -20.72)"/><path class="cls-1" d="M177.92,444.34l0,0Z" transform="translate(-25.02 -20.72)"/><path class="cls-1" d="M178.06,444.44l-.08,0Z" transform="translate(-25.02 -20.72)"/><path class="cls-1" d="M193.61,444.6l-.14.11Z" transform="translate(-25.02 -20.72)"/><path class="cls-1" d="M193.35,444.79l-.17.12Z" transform="translate(-25.02 -20.72)"/><path class="cls-1" d="M232.61,448.12l0,0Z" transform="translate(-25.02 -20.72)"/><path class="cls-1" d="M234.08,448.79l-.23-.1Z" transform="translate(-25.02 -20.72)"/><path class="cls-1" d="M232.77,448.2l-.09,0Z" transform="translate(-25.02 -20.72)"/><path class="cls-1" d="M233.3,448.46l-.16-.08Z" transform="translate(-25.02 -20.72)"/><path class="cls-1" d="M233.66,448.62l-.2-.09Z" transform="translate(-25.02 -20.72)"/><path class="cls-1" d="M300.93,448.46l-.17-.08Z" transform="translate(-25.02 -20.72)"/><path class="cls-1" d="M233,448.32l-.13-.06Z" transform="translate(-25.02 -20.72)"/><path class="cls-1" d="M315.9,448.08l0,0Z" transform="translate(-25.02 -20.72)"/><path class="cls-1" d="M302.2,449l-.24-.09Z" transform="translate(-25.02 -20.72)"/><path class="cls-1" d="M315,448.73l-.29.16Z" transform="translate(-25.02 -20.72)"/><path class="cls-1" d="M314.63,448.94a9.63,9.63,0,0,1-1,.44A9.63,9.63,0,0,0,314.63,448.94Z" transform="translate(-25.02 -20.72)"/><path class="cls-1" d="M315.55,448.36l-.15.11Z" transform="translate(-25.02 -20.72)"/><path class="cls-1" d="M315.85,448.12l-.07.06Z" transform="translate(-25.02 -20.72)"/><path class="cls-1" d="M301.3,448.62l-.2-.09Z" transform="translate(-25.02 -20.72)"/><path class="cls-1" d="M301.72,448.79l-.23-.1Z" transform="translate(-25.02 -20.72)"/><path class="cls-1" d="M300.64,448.32l-.13-.06Z" transform="translate(-25.02 -20.72)"/><path class="cls-1" d="M300.41,448.2l-.09,0Z" transform="translate(-25.02 -20.72)"/><path class="cls-1" d="M300.25,448.12l0,0Z" transform="translate(-25.02 -20.72)"/><path class="cls-1" d="M248.26,448.08l0,0Z" transform="translate(-25.02 -20.72)"/><path class="cls-1" d="M315.3,448.54l-.2.13Z" transform="translate(-25.02 -20.72)"/><path class="cls-1" d="M315.73,448.22l-.11.09Z" transform="translate(-25.02 -20.72)"/><path class="cls-1" d="M247.67,448.54l-.2.13Z" transform="translate(-25.02 -20.72)"/><path class="cls-1" d="M247.36,448.73l-.29.16Z" transform="translate(-25.02 -20.72)"/><path class="cls-1" d="M247,448.94a9.63,9.63,0,0,1-1,.44A9.63,9.63,0,0,0,247,448.94Z" transform="translate(-25.02 -20.72)"/><path class="cls-1" d="M234.56,449l-.24-.09Z" transform="translate(-25.02 -20.72)"/><path class="cls-1" d="M248.21,448.12l-.07.06Z" transform="translate(-25.02 -20.72)"/><path class="cls-1" d="M248.1,448.22l-.11.09Z" transform="translate(-25.02 -20.72)"/><path class="cls-1" d="M247.91,448.36l-.15.11Z" transform="translate(-25.02 -20.72)"/><path class="cls-2" d="M305,336.17a43.63,43.63,0,0,1-9.7,9.34,28.38,28.38,0,0,1,9.81,21.7c.14,13.87-5.41,24.14-7.77,30.52s-2.23,16.07,3.47,20.67c5.36,4.34,14.33,4.59,17.34,4.54a1,1,0,0,1,0-.23,292,292,0,0,0,5.43-44.65,1.06,1.06,0,0,1,1.08-1,1,1,0,0,1,1,1.08,279.75,279.75,0,0,1-3.8,35.66,81.3,81.3,0,0,1,9.8,1.67c2.84-8.89,8-31.11-6.91-42.67.25-22.12-3.24-34.73-5-39.71a67.83,67.83,0,0,1-15,2.66Z" transform="translate(-25.02 -20.72)"/><path class="cls-3" d="M207.76,429.65c-.39-1.08-.78-2.24-1.14-3.48s-.76-2.72-1.12-4.19c-4.76-19.54-6.69-50.64-6.71-51a1,1,0,0,0-2.08.13c0,.63.41,6.67,1.21,14.89a28,28,0,0,0-12.4-11.9,1,1,0,1,0-.84,1.9c.11.05,11.49,5.2,13.49,17.31,1.38,8.37-.2,17-1.38,21.81-.3,1.21-.58,2.19-.77,2.82a1,1,0,0,0,.68,1.29h0a1,1,0,0,0,.3,0,1,1,0,0,0,1-.74,69.47,69.47,0,0,0,2.41-12,167.28,167.28,0,0,0,3.81,18.89l.1.36c.46,1.64.92,3.19,1.47,4.58a1.4,1.4,0,0,0,1.25,1l.2,0h0C207.78,431.2,208.1,430.58,207.76,429.65Z" transform="translate(-25.02 -20.72)"/><path class="cls-3" d="M252.67,422.36c1.25-6.5,2.3-12.89,3.12-19a1,1,0,1,0-2.06-.28c-.85,6.32-1.94,12.93-3.24,19.64a1,1,0,0,0,.55,1.13c.09,0,9.38,4.83,9.59,14a1,1,0,0,0,1,1h0a1,1,0,0,0,1-1.06C262.51,428.82,255,423.75,252.67,422.36Z" transform="translate(-25.02 -20.72)"/><path class="cls-3" d="M278.67,436.89a50.18,50.18,0,0,1-3.28-7.25c-2.13-5.79-4-14.74-5.71-26.61a1,1,0,0,0-2.06.29c1.71,12.18,3.61,21,5.82,27a52.19,52.19,0,0,0,3.42,7.55,1,1,0,0,0,1.81-1Z" transform="translate(-25.02 -20.72)"/><path class="cls-3" d="M318.68,423.84c.09,0,9.38,4.83,9.59,14a12.24,12.24,0,0,1-.29,3.06,1,1,0,0,0,.78,1.25l.24,0a1,1,0,0,0,1-.8,14.3,14.3,0,0,0,.35-3.58c-.2-9-7.67-14-10-15.43.56-2.89,1.06-5.74,1.53-8.57a279.75,279.75,0,0,0,3.8-35.66,1,1,0,0,0-1-1.08,1.06,1.06,0,0,0-1.08,1,292,292,0,0,1-5.43,44.65,1.13,1.13,0,0,0,.56,1.13Z" transform="translate(-25.02 -20.72)"/><path class="cls-3" d="M177.26,436.21a.84.84,0,0,0-.73.92c.18,1.84,1.31,7.16,1.31,7.16l0,0,0,0,.07,0,.08,0,.1.07.11.07.14.08.14.08.17.1.17.09.21.11.2.1.24.12.22.1.12.06h0s-1-4.35-1.71-8.47A.85.85,0,0,0,177.26,436.21Z" transform="translate(-25.02 -20.72)"/><path class="cls-3" d="M194.53,436.27a.84.84,0,0,0-.92.73c-.3,1.94-1.77,8.61-1.78,8.66h0l.12-.06.25-.12.22-.11.23-.13.18-.11.2-.12.15-.1.17-.12.12-.08.14-.11.08-.06.11-.09.05,0,.08-.07,0,0,0,0s.91-4.32,1.28-7.1A.83.83,0,0,0,194.53,436.27Z" transform="translate(-25.02 -20.72)"/><path class="cls-3" d="M232.37,440.9a.83.83,0,0,0-.79.87c.08,1.73,1,6.31,1,6.31l0,0,0,0,.07,0,.09,0,.1.05.13.06.13.06.16.08.16.07.2.09.19.08.23.1.24.09.24.09h0a55.48,55.48,0,0,1-1.35-7.3A.85.85,0,0,0,232.37,440.9Z" transform="translate(-25.02 -20.72)"/><path class="cls-3" d="M248.4,440.9a.86.86,0,0,0-.87.79c-.29,2.13-1.52,7.69-1.52,7.71h0a9.63,9.63,0,0,0,1-.44l.09,0,.29-.16.1-.06.2-.13.09-.06.15-.11.07-.05.11-.09,0,0,.07-.06,0,0,0,0s.8-4.6.93-6.31A.82.82,0,0,0,248.4,440.9Z" transform="translate(-25.02 -20.72)"/><path class="cls-3" d="M300,440.9a.83.83,0,0,0-.79.87c.08,1.73,1,6.31,1,6.31l0,0,0,0,.07,0,.09,0,.1.05.13.06.13.06.17.08.16.07.2.09.19.08.23.1.24.09.24.09h0a55.48,55.48,0,0,1-1.35-7.3A.85.85,0,0,0,300,440.9Z" transform="translate(-25.02 -20.72)"/><path class="cls-3" d="M316,440.9a.86.86,0,0,0-.87.79c-.29,2.13-1.52,7.69-1.52,7.71h0a9.63,9.63,0,0,0,1-.44l.08,0,.29-.16.1-.06.2-.13.09-.06.15-.11.07-.05.11-.09,0,0,.07-.06,0,0,0,0s.8-4.6.93-6.31A.82.82,0,0,0,316,440.9Z" transform="translate(-25.02 -20.72)"/><path class="cls-4" d="M235.72,349.65h0l-.32-.18Z" transform="translate(-25.02 -20.72)"/><path class="cls-4" d="M228.7,345.18a56.29,56.29,0,0,0,5.69,3.71V334.7a51.69,51.69,0,0,1-8.22,1.08,60,60,0,0,1-6.49-.06l-.14.44A44.6,44.6,0,0,0,228.7,345.18Z" transform="translate(-25.02 -20.72)"/><path class="cls-5" d="M289.5,349.1a55.59,55.59,0,0,0,5.76-3.58,43.63,43.63,0,0,0,9.7-9.34l-.3-.42a59.65,59.65,0,0,1-6.15,0,53.13,53.13,0,0,1-9-1.25Z" transform="translate(-25.02 -20.72)"/><path class="cls-5" d="M288.29,349.76l.36-.2-.36.19Z" transform="translate(-25.02 -20.72)"/><path class="cls-6" d="M276.16,354.28c0,.05,0,.1,0,.15a61.69,61.69,0,0,0,12.14-4.68l.36-.19.85-.45V334.53c-1.93-.42-3.42-.81-4.31-.94a27.47,27.47,0,0,1-9.29,4.52C276,340.25,276.42,348.13,276.16,354.28Z" transform="translate(-25.02 -20.72)"/><path class="cls-7" d="M234.39,348.89v0l1,.56.32.18a60.14,60.14,0,0,0,11.48,4.72s0-.06,0-.09c-.3-7.17.3-16.55.3-16.58a26.49,26.49,0,0,1-8-4.11c-1,.14-2.78.63-5.11,1.11Z" transform="translate(-25.02 -20.72)"/><path class="cls-8" d="M255.14,350.49c.14,4.57,2.69,5.57,4.75,5.82a10.14,10.14,0,0,0,3.56,0c2-.3,4.48-1.22,4.73-5.5a3.3,3.3,0,0,1-.58.06,3.09,3.09,0,1,1,0-6.17,3.26,3.26,0,0,1,.62.06c0-2.11-.08-4-.12-5.15a56,56,0,0,1-11.59,0c-.43,0-.85-.11-1.27-.17C255.18,341.59,255,346.91,255.14,350.49Z" transform="translate(-25.02 -20.72)"/><path class="cls-9" d="M247.19,354.28s0,.06,0,.09c.34,7.1,6,8.66,10.53,9.06a31.72,31.72,0,0,0,7.9,0c4.53-.48,10.15-2,10.52-9,0-.05,0-.1,0-.15.26-6.15-.14-14-.26-16.17a44.26,44.26,0,0,1-7.73,1.49h-.06c0,1.11.09,3,.12,5.15a3.07,3.07,0,0,1,0,6.05c-.25,4.28-2.72,5.2-4.73,5.5a10.14,10.14,0,0,1-3.56,0c-2.06-.26-4.62-1.25-4.75-5.82-.11-3.58,0-8.9.1-11.05a42,42,0,0,1-7.76-1.73S246.89,347.1,247.19,354.28Z" transform="translate(-25.02 -20.72)"/><path class="cls-10" d="M264.46,347.78a3.11,3.11,0,0,0,3.14,3.09,3.3,3.3,0,0,0,.58-.06,3.07,3.07,0,0,0,0-6.05,3.26,3.26,0,0,0-.62-.06A3.11,3.11,0,0,0,264.46,347.78Z" transform="translate(-25.02 -20.72)"/><path class="cls-3" d="M308.39,174.64c-1.67-4.91-5.78-3.81-8.66-.94a27.65,27.65,0,0,0-2.09,3L294.91,182l.11-.28c.12-.29.25-.6.38-.9-.38.8-.64,1.4-.75,1.66a144.17,144.17,0,0,1,16,4.11A67.75,67.75,0,0,0,308.39,174.64Z" transform="translate(-25.02 -20.72)"/><path class="cls-1" d="M331.43,215.48c-7.92,1.53-15.25,2.27-16.3,1.25-.89-.41-1.56-3.64-2.15-8.17a60.05,60.05,0,0,0-50.63,13.61A61.92,61.92,0,0,0,222,207.5c-39.55.83-63.89,37-56.34,76.32,3,16.9,8.74,28.54,18.89,40.34q1.93,1.2,3.93,2.26c.53.28,1.05.55,1.58.81,12.48,6.15,22.46,8,29.6,8.5a60,60,0,0,0,6.49.06,51.69,51.69,0,0,0,8.22-1.08c2.33-.48,4.1-1,5.11-1.11a26.49,26.49,0,0,0,8,4.11,42,42,0,0,0,7.76,1.73c.42.06.84.12,1.27.17a56,56,0,0,0,11.59,0h.06a44.26,44.26,0,0,0,7.73-1.49,27.47,27.47,0,0,0,9.29-4.52c.89.13,2.38.52,4.31.94a53.13,53.13,0,0,0,9,1.25,59.65,59.65,0,0,0,6.15,0,67.83,67.83,0,0,0,15-2.66,91,91,0,0,0,14.93-5.86q2.83-1.4,5.52-3.07c10.15-11.79,15.9-23.43,18.9-40.34C364.51,255.27,353.18,228.39,331.43,215.48ZM288,226.7c.55-1.38,3.09-1.18,6,.45s4.4,3.66,3.47,4.83-3,.32-5.62-1.14S287.42,228.06,288,226.7Zm2.22,15.6a7.13,7.13,0,1,1-7.13,7.13A7.13,7.13,0,0,1,290.2,242.3Zm-48.57,7.13a7.13,7.13,0,1,1-7.13-7.13A7.13,7.13,0,0,1,241.62,249.42Zm-10.93-22.28c2.93-1.62,5.47-1.83,6-.45s-1.25,2.68-3.87,4.14-4.71,2.3-5.62,1.14S227.77,228.78,230.69,227.15ZM222.91,284a1.42,1.42,0,1,1,2.76.63,10.07,10.07,0,0,0-.25,2.24c0,9.72,12,10.77,17.22,10.77a18.56,18.56,0,0,0,9-2.17l.26-.15c4.76-2.7,7.93-7.65,8.81-14-9.22-.4-16.45-4.12-16.45-10.54,0-7,8.11-11.17,18.12-11.17s18.13,4.21,18.13,11.17c0,6.42-7.22,10.14-16.45,10.54.88,6.42,4.07,11.38,8.88,14.08l.11.06a18.52,18.52,0,0,0,9,2.21c5.18,0,17.23-1,17.23-10.77a10,10,0,0,0-.25-2.23,1.42,1.42,0,0,1,2.76-.64,12.83,12.83,0,0,1,.32,2.87c0,8.52-7.5,13.61-20.06,13.61a22.24,22.24,0,0,1-8.59-1.63c-2.25,5-6.43,8-11.42,8s-8.82-2.88-10.93-7.94a22.31,22.31,0,0,1-8.46,1.58c-12.56,0-20.06-5.09-20.06-13.61A12.93,12.93,0,0,1,222.91,284Z" transform="translate(-25.02 -20.72)"/><path class="cls-1" d="M341.51,323.28l-.17.11Z" transform="translate(-25.02 -20.72)"/><path class="cls-1" d="M180,321l0,0Z" transform="translate(-25.02 -20.72)"/><path class="cls-1" d="M344.94,320.85l-.24.18Z" transform="translate(-25.02 -20.72)"/><path class="cls-1" d="M178.43,319.82l-.19-.16Z" transform="translate(-25.02 -20.72)"/><path class="cls-2" d="M222,207.5a61.92,61.92,0,0,1,40.34,14.67A60.05,60.05,0,0,1,313,208.56c-.8-6.13-1.46-14.67-2.36-22a144.17,144.17,0,0,0-16-4.11,176.34,176.34,0,0,0-32.3-3.26,177.62,177.62,0,0,0-30.28,2.87c-1.57-3.51-5.18-8.49-14.81-14.39-11.43-8.17-29-12-31.56-10.09-3.06.93-11.06,15.5-12.5,29.74-1.11,11,.09,17.66,1.09,21.72h0c-17.44,16.38-25.68,38.46-21.48,63.63l.06.4c.1.67.21,1.34.33,2,0,.15.06.3.08.44q.18,1,.37,2l.09.41q.21,1,.43,2l.08.35q.24,1,.5,2l.07.27q.27,1,.57,2.05l0,.16a71,71,0,0,0,16.94,29.69l.1.11q.63.65,1.28,1.28l.2.19,1.23,1.15.24.22,1.24,1.09.24.21,1.31,1.08.19.16q.75.59,1.5,1.17l0,0q2.25,1.68,4.62,3.16h0c-10.15-11.79-15.9-23.43-18.89-40.34C158.11,244.5,182.45,208.33,222,207.5Zm-33.8-19.65c.48-4,3.2-11.16,5.5-12.69a3.12,3.12,0,0,1,1.87-.48c2.52,0,7.8,1.54,11.41,3.76,5.63,2.94,8.09,6,7.33,9.13-.64,2.66-3.87,4.22-7.94,6.2-1,.49-2.07,1-3.14,1.56-4.69,2.44-8.34,4.06-10.86,4.06a4.6,4.6,0,0,1-1.72-.3C187.85,198,187,194.18,188.2,187.84Z" transform="translate(-25.02 -20.72)"/><path class="cls-2" d="M351,209.61c-3.62,2.13-11.87,4.37-19.58,5.87,21.75,12.91,33.08,39.79,27.6,68.33-3,16.91-8.74,28.54-18.9,40.34h0l1.22-.78.17-.11q1.62-1.07,3.19-2.24l.24-.18c.43-.33.86-.65,1.28-1l.37-.3,1.12-.93.41-.35,1.06-.94.4-.36,1-1,.37-.35,1.08-1.08.29-.3q.6-.62,1.19-1.26l.14-.16a66.23,66.23,0,0,0,5.13-6.39l.06-.08q.56-.8,1.11-1.63l.1-.15q.53-.8,1-1.62l.09-.15q.52-.84,1-1.71l.06-.1a75.91,75.91,0,0,0,7-16.41l0-.12q.31-1,.59-2.1l.05-.21q.27-1,.52-2.07l.06-.26q.24-1,.46-2.08l.06-.28q.22-1.07.41-2.15l0-.24q.21-1.21.4-2.44a77.7,77.7,0,0,0,1.08-12.2C373.11,240.65,365.19,223.21,351,209.61Z" transform="translate(-25.02 -20.72)"/><path class="cls-1" d="M190.65,199.07a4.6,4.6,0,0,0,1.72.3c2.52,0,6.16-1.62,10.86-4.06,1.07-.55,2.13-1.07,3.14-1.56,4.08-2,7.3-3.54,7.94-6.2.76-3.12-1.7-6.19-7.33-9.13-3.6-2.22-8.89-3.76-11.41-3.76a3.12,3.12,0,0,0-1.87.48c-2.3,1.53-5,8.65-5.5,12.69C187,194.18,187.85,198,190.65,199.07Z" transform="translate(-25.02 -20.72)"/><path class="cls-11" d="M294.91,182l2.73-5.32.58-1.12a12,12,0,0,1,1.51-1.83c2.88-2.87,7-4,8.66.94a67.75,67.75,0,0,1,2.22,11.93c.9,7.32,1.56,15.86,2.36,22,.59,4.54,1.26,7.76,2.15,8.17,1,1,8.38.28,16.3-1.25,7.71-1.49,16-3.74,19.58-5.87h0a4.4,4.4,0,0,0,1.78-1.57c1-2.14-6.33-13.85-17-23.59-11.32-10.29-22.06-18.47-28.81-16.84-4.73,1.14-9.24,7.87-11.54,13.17-.13.31-.26.61-.38.9Z" transform="translate(-25.02 -20.72)"/><path class="cls-12" d="M227.37,249.42a7.13,7.13,0,1,0,7.13-7.13A7.13,7.13,0,0,0,227.37,249.42Zm10,0a2.84,2.84,0,1,1-2.84-2.84A2.84,2.84,0,0,1,237.34,249.42Z" transform="translate(-25.02 -20.72)"/><path class="cls-13" d="M231.65,249.42a2.84,2.84,0,1,0,2.84-2.84A2.84,2.84,0,0,0,231.65,249.42Z" transform="translate(-25.02 -20.72)"/><path class="cls-12" d="M290.2,256.55a7.13,7.13,0,1,0-7.13-7.13A7.13,7.13,0,0,0,290.2,256.55Zm0-10a2.84,2.84,0,1,1-2.84,2.84A2.84,2.84,0,0,1,290.2,246.58Z" transform="translate(-25.02 -20.72)"/><circle class="cls-13" cx="265.17" cy="228.7" r="2.84"/><path class="cls-12" d="M232.85,230.83c2.62-1.46,4.42-2.77,3.87-4.14s-3.09-1.18-6,.45-4.4,3.66-3.47,4.83S230.22,232.29,232.85,230.83Z" transform="translate(-25.02 -20.72)"/><path class="cls-12" d="M291.85,230.83c2.62,1.45,4.7,2.3,5.62,1.14s-.55-3.2-3.47-4.83-5.48-1.83-6-.45S289.23,229.38,291.85,230.83Z" transform="translate(-25.02 -20.72)"/><path class="cls-14" d="M262.34,286.62a19.66,19.66,0,0,1-11.24,12.26c2.11,5.07,6,7.94,10.93,7.94s9.17-3,11.42-8A19.68,19.68,0,0,1,262.34,286.62Z" transform="translate(-25.02 -20.72)"/><path class="cls-12" d="M242.64,300.46a22.31,22.31,0,0,0,8.46-1.58,19.66,19.66,0,0,0,11.24-12.26,19.68,19.68,0,0,0,11.11,12.21,22.24,22.24,0,0,0,8.59,1.63c12.56,0,20.06-5.09,20.06-13.61a12.83,12.83,0,0,0-.32-2.87,1.42,1.42,0,0,0-2.76.64,10,10,0,0,1,.25,2.23c0,9.72-12,10.77-17.23,10.77a18.52,18.52,0,0,1-9-2.21l-.11-.06c-4.8-2.7-8-7.66-8.88-14.08,9.23-.4,16.45-4.12,16.45-10.54,0-7-8.11-11.17-18.13-11.17s-18.12,4.21-18.12,11.17c0,6.42,7.22,10.14,16.45,10.54-.88,6.39-4,11.33-8.81,14l-.26.15a18.56,18.56,0,0,1-9,2.17c-5.18,0-17.22-1-17.22-10.77a10.07,10.07,0,0,1,.25-2.24,1.42,1.42,0,1,0-2.76-.63,12.93,12.93,0,0,0-.32,2.87C222.59,295.38,230.08,300.46,242.64,300.46Z" transform="translate(-25.02 -20.72)"/><path class="cls-2" d="M722.13,371c-11.8-17.79-27.9-12.13-27.9-12.13a14,14,0,0,0-20.35-1.42c-5.79,5.22-4.92,11.16-1.23,14.93.22-.11,15.64-7.43,28.71,5.84s2.49,36-17.14,38a24.87,24.87,0,0,1-18.88-5.41,30.69,30.69,0,0,0,2.87-13.68c-.09-9.51-3.84-19.87-10.24-29.3a290.94,290.94,0,0,1-20.33-35.29,69.08,69.08,0,0,1-16.88,3.23l.3.42a44.74,44.74,0,0,1-11.31,10.44c18.22,17.06,14.64,40,3.59,58.42-7.58,12.66-1.8,24,7.35,25.53a40.32,40.32,0,0,0,14.86-.22,1,1,0,0,1,.07-.7c.09-.18,9-18.82,9.16-45.39a130.19,130.19,0,0,0-5.55-37.57,1,1,0,0,1,2-.6,132.33,132.33,0,0,1,5.64,38.18,125.4,125.4,0,0,1-3.12,27c11.34,1,18.18,4.91,18.18,4.91-.39.48-.81.94-1.25,1.4l.5-.53c11.3,11.83,31.61,16.61,46.57,6.46C724,412.48,733.92,388.78,722.13,371Z" transform="translate(-25.02 -20.72)"/><path class="cls-1" d="M665.32,410.78a24.87,24.87,0,0,0,18.88,5.41c19.63-2,30.31-24.62,17.14-38s-28.49-5.94-28.71-5.84h0l.45.43c4.49,4.14,12.75,10.52,6.65,19.19-3.79,5.39-8.31,5.78-11.54,5.1A30.69,30.69,0,0,1,665.32,410.78Z" transform="translate(-25.02 -20.72)"/><path class="cls-2" d="M484.77,443.44l-.07-.13Z" transform="translate(-25.02 -20.72)"/><path class="cls-2" d="M485.34,444.3l-.08-.11Z" transform="translate(-25.02 -20.72)"/><path class="cls-2" d="M486.65,445.7h0Z" transform="translate(-25.02 -20.72)"/><path class="cls-2" d="M487.46,446.3l-.08-.05Z" transform="translate(-25.02 -20.72)"/><path class="cls-2" d="M483.5,437.89c0-.06,0-.13,0-.19S483.5,437.83,483.5,437.89Z" transform="translate(-25.02 -20.72)"/><path class="cls-2" d="M486,445.06l-.06-.06Z" transform="translate(-25.02 -20.72)"/><path class="cls-2" d="M483.61,436.53l0-.2Z" transform="translate(-25.02 -20.72)"/><path class="cls-2" d="M483.52,439.16s0-.1,0-.15S483.51,439.11,483.52,439.16Z" transform="translate(-25.02 -20.72)"/><path class="cls-2" d="M483.65,440.3v0Z" transform="translate(-25.02 -20.72)"/><path class="cls-2" d="M483.91,441.4l0-.07Z" transform="translate(-25.02 -20.72)"/><path class="cls-2" d="M497.17,419.45c-.53-.47-1-1-1.5-1.44C496.15,418.5,496.65,419,497.17,419.45Z" transform="translate(-25.02 -20.72)"/><path class="cls-2" d="M484.29,442.47l0-.12Z" transform="translate(-25.02 -20.72)"/><path class="cls-2" d="M483.88,435.08l0-.15Z" transform="translate(-25.02 -20.72)"/><path class="cls-2" d="M490.16,447.44l-.1,0Z" transform="translate(-25.02 -20.72)"/><path class="cls-2" d="M510.92,448.67l-.65-.08Z" transform="translate(-25.02 -20.72)"/><path class="cls-2" d="M509.47,448.45l-.56-.13Z" transform="translate(-25.02 -20.72)"/><path class="cls-2" d="M511.78,448.73l-.67,0Z" transform="translate(-25.02 -20.72)"/><path class="cls-2" d="M510.22,448.59l-.59-.11Z" transform="translate(-25.02 -20.72)"/><path class="cls-2" d="M512.54,448.71l-.71,0Z" transform="translate(-25.02 -20.72)"/><path class="cls-2" d="M489.23,447.17l-.13,0Z" transform="translate(-25.02 -20.72)"/><path class="cls-2" d="M513.46,448.62l-.72.08Z" transform="translate(-25.02 -20.72)"/><path class="cls-2" d="M660.26,418c-.48.49-1,1-1.5,1.44C659.28,419,659.78,418.5,660.26,418Z" transform="translate(-25.02 -20.72)"/><path class="cls-2" d="M491,447.59h0Z" transform="translate(-25.02 -20.72)"/><path class="cls-2" d="M495.26,417.57q-.52-.55-1-1.13Q494.74,417,495.26,417.57Z" transform="translate(-25.02 -20.72)"/><path class="cls-2" d="M491.93,447.63h0Z" transform="translate(-25.02 -20.72)"/><path class="cls-2" d="M507.39,447.83l-.45-.19Z" transform="translate(-25.02 -20.72)"/><path class="cls-2" d="M508.27,448.13c-.32-.1-.6-.2-.82-.28C507.67,447.94,507.95,448,508.27,448.13Z" transform="translate(-25.02 -20.72)"/><path class="cls-2" d="M506.92,447.63l0,0Z" transform="translate(-25.02 -20.72)"/><path class="cls-2" d="M508.51,448.21l.37.1-.51-.14Z" transform="translate(-25.02 -20.72)"/><path class="cls-2" d="M488.33,446.79l-.12-.06Z" transform="translate(-25.02 -20.72)"/><path class="cls-2" d="M509.08,384.26a132.33,132.33,0,0,1,5.64-38.18,1,1,0,0,1,2,.6,130.16,130.16,0,0,0-5.55,37.57c.15,26.58,9.07,45.21,9.16,45.39a1,1,0,0,1,.07.7,40.35,40.35,0,0,0,14.86.22c9.16-1.53,14.93-12.87,7.35-25.53-11.1-18.54-14.66-41.57,3.85-58.66a45.85,45.85,0,0,1-10.84-10.21l.14-.44a69.47,69.47,0,0,1-17.33-3.46A290.63,290.63,0,0,1,498,367.8c-11.15,16.45-14.26,35.72-4,48.36.19-.11,7-4,18.17-4.91A125.46,125.46,0,0,1,509.08,384.26Z" transform="translate(-25.02 -20.72)"/><path class="cls-2" d="M513.49,448.61l.22,0h0Z" transform="translate(-25.02 -20.72)"/><path class="cls-1" d="M493.88,448.33l-.57-.31Z" transform="translate(-25.02 -20.72)"/><path class="cls-1" d="M493.24,448l-.15-.09Z" transform="translate(-25.02 -20.72)"/><path class="cls-1" d="M506.87,447.61c-.25.17-.49.33-.74.48C506.37,447.94,506.62,447.78,506.87,447.61Z" transform="translate(-25.02 -20.72)"/><path class="cls-1" d="M505.94,448.2l-.54.3Z" transform="translate(-25.02 -20.72)"/><path class="cls-1" d="M494.22,448.49l-.32-.16Z" transform="translate(-25.02 -20.72)"/><path class="cls-1" d="M492.67,447.62l0,0Z" transform="translate(-25.02 -20.72)"/><path class="cls-1" d="M493,447.85l-.12-.07Z" transform="translate(-25.02 -20.72)"/><path class="cls-1" d="M492.74,447.67l-.06,0Z" transform="translate(-25.02 -20.72)"/><path class="cls-1" d="M492.86,447.75l-.08-.05Z" transform="translate(-25.02 -20.72)"/><path class="cls-1" d="M662,448.34l-.32.16Z" transform="translate(-25.02 -20.72)"/><path class="cls-1" d="M650.54,448.5l-.55-.3Z" transform="translate(-25.02 -20.72)"/><path class="cls-1" d="M649.8,448.09c-.25-.15-.49-.31-.74-.48C649.31,447.78,649.56,447.94,649.8,448.09Z" transform="translate(-25.02 -20.72)"/><path class="cls-1" d="M663.28,447.61l0,0Z" transform="translate(-25.02 -20.72)"/><path class="cls-1" d="M663.24,447.64l-.05,0Z" transform="translate(-25.02 -20.72)"/><path class="cls-1" d="M662.62,448l-.57.31Z" transform="translate(-25.02 -20.72)"/><path class="cls-1" d="M663.15,447.7l-.08.05Z" transform="translate(-25.02 -20.72)"/><path class="cls-1" d="M663,447.78l-.12.07Z" transform="translate(-25.02 -20.72)"/><path class="cls-1" d="M662.84,447.89l-.15.09Z" transform="translate(-25.02 -20.72)"/><path class="cls-1" d="M661.91,416.17s-6.85-4-18.18-4.91a105.07,105.07,0,0,1-5.89,18.51c2.06,1.62,7.7,6.81,6.81,14.47a1,1,0,0,1-1,.92h-.12a1,1,0,0,1-.91-1.15c.92-7.89-6.54-13-6.62-13a1,1,0,0,1-.43-.62,40.32,40.32,0,0,1-14.86.22c-9.16-1.53-14.93-12.87-7.35-25.53,11-18.46,14.63-41.36-3.59-58.42-1.34.88-2.73,1.71-4.16,2.49v0l-.85.45-.36.2h0a61.67,61.67,0,0,1-12.14,4.68c-.37,7-6,8.52-10.52,9a31.73,31.73,0,0,1-7.9,0c-4.56-.4-10.19-2-10.53-9.06a60.15,60.15,0,0,1-11.48-4.72h0l-.32-.18-1-.56v0c-1.38-.79-2.72-1.63-4-2.52-18.51,17.09-15,40.12-3.85,58.66,7.58,12.66,1.8,24-7.35,25.53a40.35,40.35,0,0,1-14.86-.22,1,1,0,0,1-.43.62c-.07.05-7.53,5.17-6.62,13a1,1,0,0,1-.91,1.15h-.12a1,1,0,0,1-1-.92c-.89-7.66,4.75-12.86,6.81-14.47a105.07,105.07,0,0,1-5.89-18.51c-11.18.94-18,4.8-18.17,4.91h0l.25.28q.48.57,1,1.13l.41.44c.48.49,1,1,1.5,1.44,0,0-9.88,5.24-12.85,14.1-.16.47-.29.93-.4,1.38l0,.15c-.1.43-.18.84-.24,1.25l0,.2q-.08.6-.11,1.17c0,.06,0,.13,0,.19,0,.38,0,.75,0,1.12,0,.05,0,.1,0,.15,0,.37.07.74.13,1.09v.05a10.22,10.22,0,0,0,.24,1l0,.07a9.12,9.12,0,0,0,.33.94l0,.12a8.48,8.48,0,0,0,.41.84l.07.13a8.82,8.82,0,0,0,.49.76l.08.11a8.88,8.88,0,0,0,.58.7l.06.06a8.55,8.55,0,0,0,.67.64h0a8.1,8.1,0,0,0,.73.55l.08.05a8.39,8.39,0,0,0,.75.43l.12.06a8,8,0,0,0,.78.33l.13,0a7.88,7.88,0,0,0,.82.24l.1,0a7.82,7.82,0,0,0,.88.15h0l.66,0h.18c.24,0,.48,0,.71,0l.64-5.37a.83.83,0,1,1,1.65.19l-.69,6.08a12.4,12.4,0,0,0,11.08,0l-.67-5.81a.83.83,0,0,1,1.65-.19l.56,5.07,0,0h0l.45.19.06,0c.22.08.5.18.82.28l.11,0,.51.14h0l.56.13.16,0,.59.11h0l.65.08.19,0,.67,0h.05l.71,0h.2l.72-.08h0l.22,0h0C517.48,455,527,452.2,527,452.2l1.12-7.49a.83.83,0,1,1,1.65.24l-1.23,8.21a16.33,16.33,0,0,0,7.67,2,14.84,14.84,0,0,0,7.18-1.86l-.29-8a.83.83,0,1,1,1.66-.1l.29,7c6,3.41,18.37,2,22.11-10.49.29-1,.55-2,.8-3a55.2,55.2,0,0,0,20,0c.25,1,.52,2,.81,3,3.74,12.52,16.09,13.9,22.11,10.49l.29-7a.83.83,0,0,1,1.66.1l-.29,8a14.84,14.84,0,0,0,7.18,1.86,16.33,16.33,0,0,0,7.66-2L626.14,445a.83.83,0,1,1,1.65-.24l1.12,7.49s9.55,2.77,13.31-3.64a12.49,12.49,0,0,0,6.84-1l.56-5.07a.83.83,0,0,1,1.65.19l-.67,5.81a12.4,12.4,0,0,0,11.08,0l-.69-6.08a.83.83,0,0,1,1.65-.19l.64,5.37c5.84.49,11.3-5.19,8.33-14.06s-12.85-14.1-12.85-14.1c.52-.47,1-1,1.5-1.44l.41-.44C661.1,417.11,661.52,416.65,661.91,416.17Zm-93.63,22.26h-.15a.94.94,0,0,1-.88-1,220.33,220.33,0,0,0,2.44-30.81,1,1,0,0,1,1-.9h0a1,1,0,0,1,1,.92,222,222,0,0,1-2.47,31A1,1,0,0,1,568.29,438.42Zm19.51,0h-.15a1,1,0,0,1-1-.78,222.19,222.19,0,0,1-2.47-31,1,1,0,0,1,1-.92h0a1,1,0,0,1,1,.9,220.27,220.27,0,0,0,2.44,30.81A.94.94,0,0,1,587.79,438.41Z" transform="translate(-25.02 -20.72)"/><path class="cls-1" d="M527.08,452.25l0,0Z" transform="translate(-25.02 -20.72)"/><path class="cls-1" d="M527.41,452.48l0,0Z" transform="translate(-25.02 -20.72)"/><path class="cls-1" d="M527.76,452.7l-.09-.05Z" transform="translate(-25.02 -20.72)"/><path class="cls-1" d="M544.93,452.31l0,0Z" transform="translate(-25.02 -20.72)"/><path class="cls-1" d="M610.91,452.24h0Z" transform="translate(-25.02 -20.72)"/><path class="cls-1" d="M527.21,452.34l0,0Z" transform="translate(-25.02 -20.72)"/><path class="cls-1" d="M545,452.23h0Z" transform="translate(-25.02 -20.72)"/><path class="cls-1" d="M544.49,452.63l0,0Z" transform="translate(-25.02 -20.72)"/><path class="cls-1" d="M543.73,453.12l-.11.06Z" transform="translate(-25.02 -20.72)"/><path class="cls-1" d="M528.13,452.92l-.13-.08Z" transform="translate(-25.02 -20.72)"/><path class="cls-1" d="M528.54,453.15l-.12-.07Z" transform="translate(-25.02 -20.72)"/><path class="cls-1" d="M612.31,453.18l-.11-.06Z" transform="translate(-25.02 -20.72)"/><path class="cls-1" d="M611,452.35l0,0Z" transform="translate(-25.02 -20.72)"/><path class="cls-1" d="M628.55,452.46l0,0Z" transform="translate(-25.02 -20.72)"/><path class="cls-1" d="M628.76,452.31l0,0Z" transform="translate(-25.02 -20.72)"/><path class="cls-1" d="M627.93,452.84l-.13.08Z" transform="translate(-25.02 -20.72)"/><path class="cls-1" d="M628.87,452.23l0,0Z" transform="translate(-25.02 -20.72)"/><path class="cls-1" d="M628.25,452.65l-.09.05Z" transform="translate(-25.02 -20.72)"/><path class="cls-1" d="M627.51,453.08l-.12.07Z" transform="translate(-25.02 -20.72)"/><path class="cls-1" d="M611.24,452.49l-.06,0Z" transform="translate(-25.02 -20.72)"/><path class="cls-1" d="M611.49,452.67l0,0Z" transform="translate(-25.02 -20.72)"/><path class="cls-1" d="M544.75,452.45l-.06,0Z" transform="translate(-25.02 -20.72)"/><path class="cls-3" d="M520.32,429.64c-.09-.18-9-18.82-9.16-45.39a130.16,130.16,0,0,1,5.55-37.57,1,1,0,0,0-2-.6,132.33,132.33,0,0,0-5.64,38.18,125.46,125.46,0,0,0,3.12,27,105.07,105.07,0,0,0,5.89,18.51c-2.06,1.62-7.7,6.81-6.81,14.47a1,1,0,0,0,1,.92h.12a1,1,0,0,0,.91-1.15c-.91-7.87,6.54-13,6.62-13a1.06,1.06,0,0,0,.36-1.32Z" transform="translate(-25.02 -20.72)"/><path class="cls-3" d="M636,431c.08.05,7.53,5.14,6.62,13a1,1,0,0,0,.91,1.15h.12a1,1,0,0,0,1-.92c.89-7.66-4.75-12.86-6.81-14.47a105.07,105.07,0,0,0,5.89-18.51,125.4,125.4,0,0,0,3.12-27,132.33,132.33,0,0,0-5.64-38.18,1,1,0,0,0-2,.6,130.19,130.19,0,0,1,5.55,37.57c-.15,26.58-9.07,45.21-9.16,45.39a1,1,0,0,0-.07.7A1,1,0,0,0,636,431Z" transform="translate(-25.02 -20.72)"/><path class="cls-3" d="M571.78,406.59a1,1,0,0,0-1-.92h0a1,1,0,0,0-1,.9,220.33,220.33,0,0,1-2.44,30.81.94.94,0,0,0,.88,1h.15a1,1,0,0,0,1-.78A222,222,0,0,0,571.78,406.59Z" transform="translate(-25.02 -20.72)"/><path class="cls-3" d="M588.67,437.37a220.27,220.27,0,0,1-2.44-30.81,1,1,0,0,0-1-.9h0a1,1,0,0,0-1,.92,222.19,222.19,0,0,0,2.47,31,1,1,0,0,0,1,.78h.15A.94.94,0,0,0,588.67,437.37Z" transform="translate(-25.02 -20.72)"/><path class="cls-3" d="M494.2,441.51a.83.83,0,0,0-.92.73l-.64,5.37,0,0h0l.06,0,0,0,.08.05.05,0,.12.07.06,0,.15.09.07,0,.57.31h0l.32.16h0l.69-6.08A.83.83,0,0,0,494.2,441.51Z" transform="translate(-25.02 -20.72)"/><path class="cls-3" d="M505.38,441.81a.83.83,0,0,0-.73.92l.67,5.81h0l.07,0,.54-.3.19-.11c.25-.15.49-.31.74-.48l-.56-5.07A.83.83,0,0,0,505.38,441.81Z" transform="translate(-25.02 -20.72)"/><path class="cls-3" d="M543.9,444.42a.83.83,0,0,0-.78.88l.29,8h0l.21-.12.11-.06c.28-.16.51-.32.71-.45l0,0,.21-.15.06,0,.13-.1,0,0,.08-.07h0l0,0-.29-7A.83.83,0,0,0,543.9,444.42Z" transform="translate(-25.02 -20.72)"/><path class="cls-3" d="M529.09,444a.83.83,0,0,0-.95.7L527,452.2l0,0,0,0,.09.06,0,0,.17.12,0,0,.26.17.09.05.24.14.13.08.29.16.12.07h0l1.23-8.21A.83.83,0,0,0,529.09,444Z" transform="translate(-25.02 -20.72)"/><path class="cls-3" d="M661.73,441.51a.83.83,0,0,0-.73.92l.69,6.08h0l.32-.16h0l.57-.31.07,0,.15-.09.06,0,.12-.07.05,0,.08-.05,0,0,.05,0h0l0,0-.64-5.37A.83.83,0,0,0,661.73,441.51Z" transform="translate(-25.02 -20.72)"/><path class="cls-3" d="M650.55,441.81a.83.83,0,0,0-.92.73l-.56,5.07c.25.17.49.33.74.48l.19.11.55.3.07,0h0l.67-5.81A.83.83,0,0,0,650.55,441.81Z" transform="translate(-25.02 -20.72)"/><path class="cls-3" d="M612,444.42a.83.83,0,0,0-.88.78l-.29,7,0,0h0l.09.07,0,0,.13.1.06,0,.21.15,0,0c.19.13.43.29.71.45l.11.06.21.12h0l.29-8A.83.83,0,0,0,612,444.42Z" transform="translate(-25.02 -20.72)"/><path class="cls-3" d="M626.84,444a.83.83,0,0,0-.7.95l1.23,8.21h0l.12-.07.29-.16.13-.08.24-.14.09-.05.26-.17,0,0,.17-.12,0,0,.09-.06,0,0,0,0-1.12-7.49A.83.83,0,0,0,626.84,444Z" transform="translate(-25.02 -20.72)"/><path class="cls-4" d="M551.8,349.65h0l-.32-.18Z" transform="translate(-25.02 -20.72)"/><path class="cls-4" d="M550.47,334.7a51.71,51.71,0,0,1-8.22,1.08,60,60,0,0,1-6.49-.06l-.14.44a45.85,45.85,0,0,0,10.84,10.21c1.29.89,2.63,1.73,4,2.52Z" transform="translate(-25.02 -20.72)"/><path class="cls-5" d="M604.36,349.76l.36-.2-.36.19Z" transform="translate(-25.02 -20.72)"/><path class="cls-5" d="M614.6,335.78a53.12,53.12,0,0,1-9-1.25V349.1c1.43-.78,2.82-1.61,4.16-2.49A44.74,44.74,0,0,0,621,336.17l-.3-.42A59.67,59.67,0,0,1,614.6,335.78Z" transform="translate(-25.02 -20.72)"/><path class="cls-6" d="M605.58,334.53c-1.93-.42-3.42-.81-4.31-.94a27.47,27.47,0,0,1-9.29,4.52c.12,2.14.52,10,.26,16.17,0,.05,0,.1,0,.15a61.67,61.67,0,0,0,12.14-4.68l.36-.19.85-.45V334.53Z" transform="translate(-25.02 -20.72)"/><path class="cls-7" d="M563.57,337.7a26.51,26.51,0,0,1-8-4.11c-1,.14-2.78.63-5.11,1.11v14.21l1,.56.32.18a60.15,60.15,0,0,0,11.48,4.72s0-.06,0-.09C563,347.1,563.57,337.73,563.57,337.7Z" transform="translate(-25.02 -20.72)"/><path class="cls-8" d="M571.22,350.49c.14,4.57,2.69,5.57,4.75,5.82a10.14,10.14,0,0,0,3.56,0c2-.3,4.48-1.22,4.73-5.5a3.3,3.3,0,0,1-.59.06,3.09,3.09,0,1,1,0-6.17,3.28,3.28,0,0,1,.62.06c0-2.11-.08-4-.12-5.15a56,56,0,0,1-11.59,0c-.43,0-.85-.11-1.27-.17C571.26,341.59,571.12,346.91,571.22,350.49Z" transform="translate(-25.02 -20.72)"/><path class="cls-9" d="M592,338.11a44.25,44.25,0,0,1-7.73,1.49h-.06c0,1.11.09,3,.12,5.15a3.07,3.07,0,0,1,0,6.05c-.25,4.28-2.72,5.2-4.73,5.5a10.14,10.14,0,0,1-3.56,0c-2.06-.26-4.62-1.25-4.75-5.82-.1-3.58,0-8.9.1-11.05a42,42,0,0,1-7.76-1.73s-.6,9.4-.3,16.58c0,0,0,.06,0,.09.34,7.1,6,8.66,10.53,9.06a31.73,31.73,0,0,0,7.9,0c4.53-.48,10.15-2,10.52-9,0-.05,0-.1,0-.15C592.5,348.13,592.09,340.25,592,338.11Z" transform="translate(-25.02 -20.72)"/><path class="cls-15" d="M580.54,347.78a3.11,3.11,0,0,0,3.14,3.09,3.3,3.3,0,0,0,.59-.06,3.07,3.07,0,0,0,0-6.05,3.28,3.28,0,0,0-.62-.06A3.11,3.11,0,0,0,580.54,347.78Z" transform="translate(-25.02 -20.72)"/><path class="cls-3" d="M624.46,174.64c-1.67-4.91-5.78-3.81-8.66-.94a27.65,27.65,0,0,0-2.09,3L611,182l.11-.28c.12-.29.25-.6.38-.9-.38.8-.64,1.4-.75,1.66a144.17,144.17,0,0,1,16,4.11A67.74,67.74,0,0,0,624.46,174.64Z" transform="translate(-25.02 -20.72)"/><path class="cls-1" d="M535.76,335.72a60,60,0,0,0,6.49.06,51.71,51.71,0,0,0,8.22-1.08c2.33-.48,4.1-1,5.11-1.11a26.51,26.51,0,0,0,8,4.11,42,42,0,0,0,7.76,1.73c.42.06.84.12,1.27.17a56,56,0,0,0,11.59,0h.06a44.25,44.25,0,0,0,7.73-1.49,27.47,27.47,0,0,0,9.29-4.52c.89.13,2.38.52,4.31.94a53.12,53.12,0,0,0,9,1.25,59.67,59.67,0,0,0,6.15,0,69.08,69.08,0,0,0,16.88-3.23,93,93,0,0,0,13.07-5.29q2.83-1.4,5.52-3.07c10.15-11.79,15.9-23.43,18.9-40.34,5.48-28.55-5.85-55.42-27.6-68.33-7.92,1.53-15.25,2.27-16.3,1.25-.89-.41-1.56-3.64-2.15-8.17a60.05,60.05,0,0,0-50.63,13.61,61.92,61.92,0,0,0-40.34-14.67c-39.55.83-63.89,37-56.34,76.32,3,16.9,8.74,28.54,18.89,40.34q2.69,1.67,5.52,3.07a93.6,93.6,0,0,0,12.27,5A69.47,69.47,0,0,0,535.76,335.72ZM604,226.7c.55-1.38,3.09-1.18,6,.45s4.41,3.66,3.47,4.83-3,.32-5.62-1.14S603.5,228.06,604,226.7Zm2.23,15.6a7.13,7.13,0,1,1-7.13,7.13A7.13,7.13,0,0,1,606.27,242.3Zm-48.57,7.13a7.13,7.13,0,1,1-7.13-7.13A7.13,7.13,0,0,1,557.7,249.42Zm-10.93-22.28c2.93-1.62,5.47-1.83,6-.45s-1.26,2.68-3.87,4.14-4.71,2.3-5.62,1.14S543.85,228.78,546.77,227.15ZM539,284a1.42,1.42,0,0,1,2.76.63,10.06,10.06,0,0,0-.25,2.24c0,9.72,12,10.77,17.22,10.77a18.55,18.55,0,0,0,8.95-2.17l.26-.15c4.76-2.7,7.93-7.65,8.81-14-9.22-.4-16.45-4.12-16.45-10.54,0-7,8.11-11.17,18.13-11.17s18.13,4.21,18.13,11.17c0,6.42-7.22,10.14-16.45,10.54.88,6.42,4.08,11.38,8.88,14.08l.1.06a18.53,18.53,0,0,0,9,2.21c5.18,0,17.23-1,17.23-10.77a10,10,0,0,0-.25-2.23,1.42,1.42,0,0,1,2.76-.64,12.83,12.83,0,0,1,.32,2.87c0,8.52-7.5,13.61-20.06,13.61a22.24,22.24,0,0,1-8.59-1.63c-2.25,5-6.43,8-11.42,8s-8.82-2.88-10.93-7.94a22.3,22.3,0,0,1-8.46,1.58c-12.56,0-20.06-5.09-20.06-13.61A12.88,12.88,0,0,1,539,284Z" transform="translate(-25.02 -20.72)"/><path class="cls-2" d="M538.08,207.5a61.92,61.92,0,0,1,40.34,14.67A60.05,60.05,0,0,1,629,208.56c-.8-6.13-1.46-14.67-2.36-22a144.17,144.17,0,0,0-16-4.11,161.51,161.51,0,0,0-62.58-.39c-1.56-3.51-5.18-8.49-14.81-14.39-11.43-8.17-29-12-31.56-10.09-3.06.93-11.06,15.5-12.5,29.74-1.11,11,.09,17.66,1.09,21.72h0c-17.44,16.38-25.68,38.46-21.48,63.63,0,.13,0,.27.06.4.1.67.21,1.34.33,2l.08.44c.12.66.24,1.31.38,2l.09.41q.21,1,.43,2l.08.35q.24,1,.5,2l.07.27q.28,1,.57,2.05l0,.16a71,71,0,0,0,16.94,29.69l.09.09q.64.66,1.29,1.29l.19.18q.62.59,1.24,1.17l.23.21,1.25,1.1.23.2q.66.56,1.33,1.1l.18.14q.75.6,1.52,1.18h0q2.25,1.69,4.62,3.16h0c-10.15-11.79-15.9-23.43-18.89-40.34C474.19,244.5,498.53,208.33,538.08,207.5Zm-33.8-19.65c.48-4,3.2-11.16,5.5-12.69a3.13,3.13,0,0,1,1.87-.48c2.52,0,7.8,1.54,11.41,3.76,5.63,2.94,8.09,6,7.33,9.13-.64,2.66-3.87,4.22-7.94,6.2-1,.49-2.07,1-3.14,1.56-4.69,2.44-8.33,4.06-10.85,4.06a4.6,4.6,0,0,1-1.72-.3C503.92,198,503.1,194.18,504.28,187.84Z" transform="translate(-25.02 -20.72)"/><path class="cls-2" d="M667.08,209.61c-3.62,2.13-11.87,4.37-19.58,5.87,21.75,12.91,33.08,39.79,27.6,68.33-3,16.91-8.74,28.54-18.9,40.34h0l1.22-.78.17-.11q1.63-1.07,3.19-2.24l.22-.17,1.3-1,.35-.29,1.13-.94.4-.34,1.07-.94.39-.35,1.06-1,.36-.34c.37-.36.73-.72,1.09-1.09l.28-.28q.61-.63,1.21-1.28l.13-.14a66.26,66.26,0,0,0,5.13-6.39l0-.07q.57-.81,1.12-1.64l.09-.14q.53-.81,1-1.63l.09-.14q.52-.85,1-1.71l.05-.09a75.92,75.92,0,0,0,7-16.41l0-.12q.31-1,.59-2.1l.06-.21q.27-1,.52-2.07l.06-.26q.24-1,.46-2.08l.06-.28q.22-1.07.41-2.15l0-.24c.14-.8.28-1.62.4-2.44a77.59,77.59,0,0,0,1.08-12.2C689.19,240.65,681.27,223.21,667.08,209.61Z" transform="translate(-25.02 -20.72)"/><path class="cls-1" d="M506.73,199.07a4.6,4.6,0,0,0,1.72.3c2.52,0,6.16-1.62,10.85-4.06,1.07-.55,2.13-1.07,3.14-1.56,4.08-2,7.3-3.54,7.94-6.2.76-3.12-1.7-6.19-7.33-9.13-3.6-2.22-8.89-3.76-11.41-3.76a3.13,3.13,0,0,0-1.87.48c-2.3,1.53-5,8.65-5.5,12.69C503.1,194.18,503.92,198,506.73,199.07Z" transform="translate(-25.02 -20.72)"/><path class="cls-11" d="M611,182l2.73-5.32.58-1.12a12,12,0,0,1,1.51-1.83c2.88-2.87,7-4,8.66.94a67.74,67.74,0,0,1,2.22,11.93c.9,7.32,1.56,15.86,2.36,22,.59,4.54,1.26,7.76,2.15,8.17,1,1,8.38.28,16.3-1.25,7.71-1.49,16-3.74,19.58-5.87h0a4.4,4.4,0,0,0,1.78-1.57c1-2.14-6.33-13.85-17-23.59C640.49,174.17,629.75,166,623,167.62c-4.73,1.14-9.24,7.87-11.54,13.17-.13.31-.26.61-.38.9Z" transform="translate(-25.02 -20.72)"/><path class="cls-12" d="M543.44,249.42a7.13,7.13,0,1,0,7.13-7.13A7.13,7.13,0,0,0,543.44,249.42Zm10,0a2.84,2.84,0,1,1-2.84-2.84A2.84,2.84,0,0,1,553.41,249.42Z" transform="translate(-25.02 -20.72)"/><path class="cls-13" d="M547.73,249.42a2.84,2.84,0,1,0,2.84-2.84A2.84,2.84,0,0,0,547.73,249.42Z" transform="translate(-25.02 -20.72)"/><path class="cls-12" d="M606.27,256.55a7.13,7.13,0,1,0-7.13-7.13A7.13,7.13,0,0,0,606.27,256.55Zm0-10a2.84,2.84,0,1,1-2.84,2.84A2.84,2.84,0,0,1,606.27,246.58Z" transform="translate(-25.02 -20.72)"/><circle class="cls-13" cx="581.25" cy="228.7" r="2.84"/><path class="cls-12" d="M548.92,230.83c2.62-1.46,4.42-2.77,3.87-4.14s-3.09-1.18-6,.45-4.4,3.66-3.47,4.83S546.3,232.29,548.92,230.83Z" transform="translate(-25.02 -20.72)"/><path class="cls-12" d="M607.92,230.83c2.62,1.45,4.7,2.3,5.62,1.14s-.55-3.2-3.47-4.83-5.48-1.83-6-.45S605.3,229.38,607.92,230.83Z" transform="translate(-25.02 -20.72)"/><path class="cls-14" d="M567.67,295.47l.26-.15Z" transform="translate(-25.02 -20.72)"/><path class="cls-14" d="M589,295.37l.1.06Z" transform="translate(-25.02 -20.72)"/><path class="cls-14" d="M578.42,286.62a19.67,19.67,0,0,1-11.24,12.26c2.12,5.07,6,7.94,10.93,7.94s9.17-3,11.42-8A19.68,19.68,0,0,1,578.42,286.62Z" transform="translate(-25.02 -20.72)"/><path class="cls-12" d="M558.72,300.46a22.3,22.3,0,0,0,8.46-1.58,19.67,19.67,0,0,0,11.24-12.26,19.68,19.68,0,0,0,11.11,12.21,22.24,22.24,0,0,0,8.59,1.63c12.56,0,20.06-5.09,20.06-13.61a12.83,12.83,0,0,0-.32-2.87,1.42,1.42,0,0,0-2.76.64,10,10,0,0,1,.25,2.23c0,9.72-12,10.77-17.23,10.77a18.53,18.53,0,0,1-9-2.21l-.1-.06c-4.81-2.7-8-7.66-8.88-14.08,9.22-.4,16.45-4.12,16.45-10.54,0-7-8.11-11.17-18.13-11.17s-18.12,4.21-18.12,11.17c0,6.42,7.22,10.14,16.45,10.54-.88,6.39-4,11.33-8.81,14l-.26.15a18.55,18.55,0,0,1-8.95,2.17c-5.18,0-17.22-1-17.22-10.77a10.06,10.06,0,0,1,.25-2.24A1.42,1.42,0,0,0,539,284a12.88,12.88,0,0,0-.32,2.87C538.66,295.38,546.16,300.46,558.72,300.46Z" transform="translate(-25.02 -20.72)"/><path class="cls-7" d="M28.37,31.12a.42.42,0,0,1,.07.23c0,.12,0,.13-.17.5a18.13,18.13,0,0,0-.94,2.88c0,.18-.1.28-.17.32a5,5,0,0,1-.84.12h-.07l-.33,0c-.22,0-.27-.05-.33-.25a22.08,22.08,0,0,1-.57-5,25.55,25.55,0,0,1,.59-5.49c.17-.9.25-1.41.32-2a7.72,7.72,0,0,1,1.81.54c.28.12.37.2.37.37s0,.17-.2.44c-.55.89-1.17,4.44-1.17,6.83,0,.39,0,.9.07,1.74.47-1.05.64-1.37,1-2.19A5.13,5.13,0,0,0,28.37,31.12ZM32,32.3a4.7,4.7,0,0,0,2.29.39A8.51,8.51,0,0,0,37,32.3a.85.85,0,0,1,.23-.05c.12,0,.2.07.22.23a13.64,13.64,0,0,1,.15,1.57c0,.17,0,.22-.28.28a11.38,11.38,0,0,1-2.95.35A6.14,6.14,0,0,1,31.13,34c-.74-.45-1.51-1.37-1.51-1.82,0-.23.35-.55,1.25-1.1A2.36,2.36,0,0,0,32,32.3Zm-1.17-8.54a14.78,14.78,0,0,0,2.26.15,18.76,18.76,0,0,0,3.25-.27l.15,0c.12,0,.17.05.2.18a11.83,11.83,0,0,1,.08,1.36c0,.25-.05.34-.23.37a17.73,17.73,0,0,1-3,.22,13.88,13.88,0,0,1-2.9-.18c-.08-.05-.12-.17-.12-.47a9.22,9.22,0,0,1,.08-1.26c0-.07.07-.1.17-.1A.18.18,0,0,1,30.83,23.77Z" transform="translate(-25.02 -20.72)"/><path class="cls-7" d="M43.71,21.93c.42.12.54.2.54.38a1,1,0,0,1-.1.4,9.44,9.44,0,0,0-.39,2.51c-.13,2.69-.2,4.79-.2,6.44a4.25,4.25,0,0,0,.13,1.21c.18.55.77.84,1.71.84a6.13,6.13,0,0,0,4.24-1.84,10,10,0,0,0,1.59-1.94,5.72,5.72,0,0,0,.6,1.64,1,1,0,0,1,.08.38c0,.3-.32.7-1.16,1.46a8,8,0,0,1-5.42,2.26,3.84,3.84,0,0,1-2.81-.92c-.64-.67-.89-1.54-.89-3.2,0-1.31,0-2.31.15-6.21,0-.59,0-.94,0-1.09a15.86,15.86,0,0,0-.12-2.56A9.57,9.57,0,0,1,43.71,21.93Zm5.56,4.29a.24.24,0,0,1-.18-.13,8,8,0,0,0-1.29-1.67c-.08-.07-.1-.1-.1-.15s.13-.23.42-.44.35-.23.44-.23.35.17.77.64a4.2,4.2,0,0,1,.9,1.19C50.22,25.59,49.49,26.21,49.27,26.21ZM51,23a4.23,4.23,0,0,1,.92,1.22A1.84,1.84,0,0,1,51,25c-.07,0-.13-.05-.2-.17a8,8,0,0,0-1.29-1.59c-.07-.07-.08-.1-.08-.13s.67-.62.87-.62S50.59,22.66,51,23Z" transform="translate(-25.02 -20.72)"/><path class="cls-7" d="M58.43,31.43a.28.28,0,0,1,.07.18c0,.1,0,.1-.29.87A11.94,11.94,0,0,0,57.58,35a.32.32,0,0,1-.3.35,4.93,4.93,0,0,1-1.12.1c-.17,0-.25,0-.3-.13a12.71,12.71,0,0,1-.55-2.41,16.71,16.71,0,0,1-.17-2.46,37.05,37.05,0,0,1,.82-7,12.08,12.08,0,0,0,.18-1.31,5.63,5.63,0,0,1,1.79.49c.25.13.35.25.35.4a.57.57,0,0,1-.12.32c-.69,1.17-1.32,4.79-1.32,7.47,0,.4,0,1,.07,1.84.4-1,.59-1.51,1-2.31A2.75,2.75,0,0,0,58.43,31.43ZM61.24,27c-.8,0-1,0-1-.22a5.28,5.28,0,0,1-.1-1.07c0-.13,0-.27,0-.57.45,0,.72.05,1.27.05.9,0,1.47,0,2.34-.08a13,13,0,0,0-.2-3.18,8.89,8.89,0,0,1,2,.22c.25.07.35.15.35.32a.68.68,0,0,1-.07.25A6.68,6.68,0,0,0,65.53,25c.62-.08,1.16-.2,2.16-.44a.37.37,0,0,1,.17,0c.1,0,.15.05.18.17a8.92,8.92,0,0,1,.08,1.14c0,.42,0,.49-.18.55a11.57,11.57,0,0,1-2.43.44c0,1.16.1,3.06.22,4.15a13,13,0,0,1,2.51,1.36c.47.33.57.45.57.57a3.66,3.66,0,0,1-.65,1.24c-.2.28-.3.37-.42.37s-.12,0-.5-.37A8.81,8.81,0,0,0,65.74,33v.13c0,1.47-1.22,2.44-3.08,2.44s-3.13-1-3.13-2.51a2.74,2.74,0,0,1,3-2.63,8.35,8.35,0,0,1,1.39.08c-.07-1.31-.07-1.31-.12-3.55C63,27,61.91,27,61.24,27ZM62.61,32c-.84,0-1.39.39-1.39,1s.52.87,1.32.87,1.36-.4,1.36-1.17c0-.23,0-.42,0-.42A3.39,3.39,0,0,0,62.61,32Z" transform="translate(-25.02 -20.72)"/><path class="cls-7" d="M72,26.06c-.9,0-.94,0-1-.2a5.79,5.79,0,0,1-.27-1.61,18,18,0,0,0,2,.1c.49,0,1.14,0,1.82-.07a12.7,12.7,0,0,0,.17-2c0-.28,0-.5,0-.89a9.9,9.9,0,0,1,2.13.33c.13.05.18.1.18.23a.73.73,0,0,1-.12.37,4.53,4.53,0,0,0-.32,1.14c-.05.32-.07.39-.1.6a16.58,16.58,0,0,0,3.7-.84,1.18,1.18,0,0,1,.27-.05c.12,0,.17.08.23.42a11.25,11.25,0,0,1,.15,1.22c0,.2-.07.23-.57.35a41.37,41.37,0,0,1-4.13.62,13.51,13.51,0,0,1-1.34,3.78A6.94,6.94,0,0,1,77,28.3a6.09,6.09,0,0,1,2.18-.39,3.93,3.93,0,0,1,2.85,1,3.36,3.36,0,0,1,.92,2.36,3.57,3.57,0,0,1-1.84,3.08,9.71,9.71,0,0,1-4,1.37c-.27,0-.54.07-.64.07a.48.48,0,0,1-.49-.28,4.82,4.82,0,0,0-1-1.37,12.67,12.67,0,0,0,4-.72c1.27-.45,2-1.22,2-2.11a1.68,1.68,0,0,0-1.83-1.82,7.17,7.17,0,0,0-5.36,3,.43.43,0,0,1-.3.18A3.29,3.29,0,0,1,72,31.28c0-.08,0-.12.18-.33a13.71,13.71,0,0,0,2.06-5Z" transform="translate(-25.02 -20.72)"/><path class="cls-7" d="M90.74,36.41a13.37,13.37,0,0,1-1.82-3.3A12.3,12.3,0,0,1,88,28.49,11.84,11.84,0,0,1,88.88,24a13.5,13.5,0,0,1,1.84-3.3h2.34a13,13,0,0,0-2.12,3.33,11,11,0,0,0-.87,4.44A11.32,11.32,0,0,0,91,33.07a12.86,12.86,0,0,0,2.13,3.33Z" transform="translate(-25.02 -20.72)"/><path class="cls-7" d="M100.27,21.93a4.7,4.7,0,0,1,3.26.9,3.4,3.4,0,0,1,1,2.53,3.08,3.08,0,0,1-2.43,3.21c.85.37,1.07.7,1.92,2.95L105.38,35h-2.29L102,31.74c-.65-1.91-1.14-2.48-2.11-2.48H97.74V35H95.65v-13Zm-.6,5.57c1.91,0,2.78-.62,2.78-2a1.69,1.69,0,0,0-.59-1.36,4,4,0,0,0-2.21-.45H97.74V27.5Z" transform="translate(-25.02 -20.72)"/><path class="cls-7" d="M115.06,26.3a5,5,0,0,0-.62-1.66,2.29,2.29,0,0,0-2-1,2.5,2.5,0,0,0-2.14,1,6,6,0,0,0-1,3.83c0,3.21,1.09,4.87,3.2,4.87a2.47,2.47,0,0,0,2.11-.92,2.58,2.58,0,0,0,.59-1.32v-1.1H112.4V28.24h4.87V35h-2v-.49c0-.1,0-.4,0-.89a2.87,2.87,0,0,1-1.29,1.2,4.1,4.1,0,0,1-1.84.38c-3.11,0-5.07-2.59-5.07-6.71,0-4.29,2-6.76,5.34-6.76A4.43,4.43,0,0,1,116,23.18a5.43,5.43,0,0,1,1.17,2.58Z" transform="translate(-25.02 -20.72)"/><path class="cls-7" d="M124.9,21.93a4.68,4.68,0,0,1,3.1.87,3.23,3.23,0,0,1,1,2.43A2.9,2.9,0,0,1,127.25,28a3.07,3.07,0,0,1,2.09,3,3.83,3.83,0,0,1-1.29,3,4.93,4.93,0,0,1-3,.9h-5v-13Zm-2.73,5.31h1.94a4.18,4.18,0,0,0,2-.37,1.53,1.53,0,0,0,.74-1.44c0-1.26-.74-1.72-2.75-1.72h-1.94Zm0,5.94h2.11a4,4,0,0,0,2.09-.44,1.89,1.89,0,0,0,.79-1.69c0-1.44-.92-2.06-3-2.06h-1.94Z" transform="translate(-25.02 -20.72)"/><path class="cls-7" d="M131.33,36.41a12.86,12.86,0,0,0,2.13-3.33,11.27,11.27,0,0,0,.89-4.59,10.87,10.87,0,0,0-.85-4.44,13.67,13.67,0,0,0-2.14-3.33h2.36a13.35,13.35,0,0,1,1.82,3.3,11.84,11.84,0,0,1,.85,4.47,12.57,12.57,0,0,1-.87,4.62,14,14,0,0,1-1.82,3.3Z" transform="translate(-25.02 -20.72)"/></svg>