<svg xmlns="http://www.w3.org/2000/svg" viewBox="0 0 286.5 344.79"><defs><style>.cls-1{fill:#fff;}.cls-2{font-size:9px;font-family:Helvetica-Bold, Helvetica;font-weight:700;}.cls-3{letter-spacing:-0.04em;}.cls-4{letter-spacing:-0.02em;}.cls-5{fill:#d2812e;}.cls-6{fill:#fbeeb4;}.cls-7{fill:#a56522;}.cls-8{fill:#8b3e8d;}.cls-9{fill:#c50018;}.cls-10{fill:#fff000;}.cls-11{fill:#009fe6;}.cls-12{fill:#63ac6b;}.cls-13{fill:#e6e6e6;}.cls-14{fill:#ccc;}.cls-15{fill:#da8f41;}.cls-16{fill:#251e1c;}.cls-17{fill:#c72d2a;}</style></defs><title>niji8-front</title><g id="CC-BY_4.0" data-name="CC-BY 4.0"><circle class="cls-1" cx="16.15" cy="327.77" r="14.42"/><path d="M34.72,322.93a15.62,15.62,0,0,1,11.43,4.69,15.4,15.4,0,0,1,3.43,5.16,16.87,16.87,0,0,1,0,12.32,14.69,14.69,0,0,1-3.42,5.07,16.45,16.45,0,0,1-5.32,3.54,15.93,15.93,0,0,1-6.15,1.23,15.56,15.56,0,0,1-6.07-1.22,16.47,16.47,0,0,1-8.7-8.7,16,16,0,0,1,0-12.19,16.07,16.07,0,0,1,3.53-5.25A15.13,15.13,0,0,1,34.72,322.93Zm.06,2.89a12.41,12.41,0,0,0-9.23,3.83,13.76,13.76,0,0,0-2.9,4.3,12.69,12.69,0,0,0,0,9.95A13.55,13.55,0,0,0,29.81,351a13,13,0,0,0,10,0,13.82,13.82,0,0,0,4.36-2.89,12.3,12.3,0,0,0,3.74-9.18,13.14,13.14,0,0,0-1-5,12.8,12.8,0,0,0-2.83-4.23A12.67,12.67,0,0,0,34.78,325.82Zm-.2,10.46-2.14,1.11a2.2,2.2,0,0,0-.84-1,1.9,1.9,0,0,0-.93-.29q-2.14,0-2.14,2.83a3.51,3.51,0,0,0,.54,2.06,1.83,1.83,0,0,0,1.6.77,2,2,0,0,0,2-1.37l2,1a4.94,4.94,0,0,1-7.66,1.2,5.68,5.68,0,0,1,0-7.29A4.53,4.53,0,0,1,30.32,334,4.49,4.49,0,0,1,34.58,336.28Zm9.23,0-2.12,1.11a2.2,2.2,0,0,0-.84-1,1.94,1.94,0,0,0-1-.29q-2.14,0-2.14,2.83a3.51,3.51,0,0,0,.54,2.06,1.83,1.83,0,0,0,1.6.77,2,2,0,0,0,2-1.37l2,1a4.91,4.91,0,0,1-1.77,1.84,5,5,0,0,1-5.9-.64,5.7,5.7,0,0,1,0-7.29A4.53,4.53,0,0,1,39.58,334,4.42,4.42,0,0,1,43.81,336.28Z" transform="translate(-18.74 -11.16)"/><circle class="cls-1" cx="52.79" cy="327.92" r="14.14"/><path d="M71.44,322.93a15.86,15.86,0,0,1,16,16,15.09,15.09,0,0,1-4.57,11.23,15.81,15.81,0,0,1-11.46,4.77,16.11,16.11,0,0,1-16-16,15.69,15.69,0,0,1,4.72-11.38A15.33,15.33,0,0,1,71.44,322.93Zm.06,2.89a12.46,12.46,0,0,0-9.23,3.83,12.88,12.88,0,0,0-3.92,9.29A13.27,13.27,0,0,0,71.49,352a12.85,12.85,0,0,0,9.32-3.92,12.19,12.19,0,0,0,3.77-9.18,13.08,13.08,0,0,0-13.09-13.12ZM75.78,335v6.55H74v7.77H69v-7.77H67.15V335a1,1,0,0,1,1-1h6.57a1,1,0,0,1,.71.3A1,1,0,0,1,75.78,335Zm-6.55-4.12a2.23,2.23,0,1,1,2.23,2.23A2,2,0,0,1,69.23,330.85Z" transform="translate(-18.74 -11.16)"/><text class="cls-2" transform="translate(76.94 318.86)">Some rights reserved by mixi, Inc.<tspan x="0" y="10.8">with Creative Commons</tspan><tspan class="cls-3" x="102.52" y="10.8"> </tspan><tspan x="104.69" y="10.8">Attribution 4.0 Interna</tspan><tspan x="198.2" y="10.8">-</tspan><tspan x="0" y="21.6">tional (CC-B</tspan><tspan class="cls-4" x="51.99" y="21.6">Y</tspan><tspan x="57.84" y="21.6" xml:space="preserve"> 4.0)</tspan></text></g><g id="niji8-front"><path class="cls-5" d="M292.81,225.06c-11.8-17.79-27.9-12.13-27.9-12.13a14,14,0,0,0-20.35-1.42c-5.79,5.22-4.92,11.16-1.23,14.93.22-.11,15.64-7.43,28.71,5.84s2.49,36-17.14,38A24.87,24.87,0,0,1,236,264.84a30.69,30.69,0,0,0,2.87-13.68c-.09-9.51-3.84-19.87-10.24-29.3a290.94,290.94,0,0,1-20.33-35.29,69.08,69.08,0,0,1-16.88,3.23l.3.42a44.74,44.74,0,0,1-11.31,10.44c18.22,17.06,14.64,40,3.59,58.42-7.58,12.66-1.8,24,7.35,25.53a40.32,40.32,0,0,0,14.86-.22,1,1,0,0,1,.07-.7c.09-.18,9-18.82,9.16-45.39a130.19,130.19,0,0,0-5.55-37.57,1,1,0,0,1,2-.6,132.33,132.33,0,0,1,5.64,38.18,125.4,125.4,0,0,1-3.12,27c11.33,1,18.18,4.91,18.18,4.91-.39.48-.81.94-1.25,1.4l.5-.53c11.3,11.83,31.61,16.61,46.57,6.46C294.65,266.54,304.61,242.84,292.81,225.06Z" transform="translate(-18.74 -11.16)"/><path class="cls-6" d="M236,264.84a24.87,24.87,0,0,0,18.88,5.41c19.63-2,30.31-24.62,17.14-38s-28.49-5.94-28.71-5.84h0l.45.43c4.49,4.14,12.75,10.52,6.65,19.19-3.79,5.39-8.31,5.78-11.54,5.1A30.69,30.69,0,0,1,236,264.84Z" transform="translate(-18.74 -11.16)"/><path class="cls-5" d="M55.46,297.5l-.07-.13Z" transform="translate(-18.74 -11.16)"/><path class="cls-5" d="M56,298.37l-.08-.11Z" transform="translate(-18.74 -11.16)"/><path class="cls-5" d="M57.34,299.77h0Z" transform="translate(-18.74 -11.16)"/><path class="cls-5" d="M58.15,300.37l-.08-.05Z" transform="translate(-18.74 -11.16)"/><path class="cls-5" d="M54.19,292c0-.06,0-.13,0-.19S54.19,291.89,54.19,292Z" transform="translate(-18.74 -11.16)"/><path class="cls-5" d="M56.66,299.12l-.06-.06Z" transform="translate(-18.74 -11.16)"/><path class="cls-5" d="M54.3,290.59l0-.2Z" transform="translate(-18.74 -11.16)"/><path class="cls-5" d="M54.2,293.22s0-.1,0-.15S54.2,293.17,54.2,293.22Z" transform="translate(-18.74 -11.16)"/><path class="cls-5" d="M54.34,294.36v0Z" transform="translate(-18.74 -11.16)"/><path class="cls-5" d="M54.59,295.46l0-.07Z" transform="translate(-18.74 -11.16)"/><path class="cls-5" d="M67.86,273.51c-.53-.47-1-1-1.5-1.44C66.84,272.56,67.34,273,67.86,273.51Z" transform="translate(-18.74 -11.16)"/><path class="cls-5" d="M55,296.53l0-.12Z" transform="translate(-18.74 -11.16)"/><path class="cls-5" d="M54.57,289.14l0-.15Z" transform="translate(-18.74 -11.16)"/><path class="cls-5" d="M60.85,301.5l-.1,0Z" transform="translate(-18.74 -11.16)"/><path class="cls-5" d="M81.61,302.74l-.65-.08Z" transform="translate(-18.74 -11.16)"/><path class="cls-5" d="M80.16,302.51l-.56-.13Z" transform="translate(-18.74 -11.16)"/><path class="cls-5" d="M82.47,302.79l-.67,0Z" transform="translate(-18.74 -11.16)"/><path class="cls-5" d="M80.91,302.65l-.59-.11Z" transform="translate(-18.74 -11.16)"/><path class="cls-5" d="M83.22,302.77l-.71,0Z" transform="translate(-18.74 -11.16)"/><path class="cls-5" d="M59.92,301.24l-.13,0Z" transform="translate(-18.74 -11.16)"/><path class="cls-5" d="M84.15,302.68l-.72.08Z" transform="translate(-18.74 -11.16)"/><path class="cls-5" d="M230.95,272.07c-.48.49-1,1-1.5,1.44C230,273,230.47,272.56,230.95,272.07Z" transform="translate(-18.74 -11.16)"/><path class="cls-5" d="M61.74,301.65h0Z" transform="translate(-18.74 -11.16)"/><path class="cls-5" d="M65.95,271.63q-.52-.55-1-1.13Q65.43,271.08,65.95,271.63Z" transform="translate(-18.74 -11.16)"/><path class="cls-5" d="M62.62,301.7h0Z" transform="translate(-18.74 -11.16)"/><path class="cls-5" d="M78.08,301.89l-.45-.19Z" transform="translate(-18.74 -11.16)"/><path class="cls-5" d="M79,302.2c-.32-.1-.6-.2-.82-.28C78.36,302,78.63,302.1,79,302.2Z" transform="translate(-18.74 -11.16)"/><path class="cls-5" d="M77.6,301.69l0,0Z" transform="translate(-18.74 -11.16)"/><path class="cls-5" d="M79.2,302.27l.37.1-.51-.14Z" transform="translate(-18.74 -11.16)"/><path class="cls-5" d="M59,300.86l-.12-.06Z" transform="translate(-18.74 -11.16)"/><path class="cls-5" d="M79.77,238.32a132.33,132.33,0,0,1,5.64-38.18,1,1,0,0,1,2,.6,130.16,130.16,0,0,0-5.55,37.57C82,264.88,90.92,283.51,91,283.7a1,1,0,0,1,.07.7,40.34,40.34,0,0,0,14.86.22c9.16-1.53,14.93-12.87,7.35-25.53-11.1-18.54-14.66-41.57,3.85-58.66a45.85,45.85,0,0,1-10.84-10.21l.14-.44a69.47,69.47,0,0,1-17.33-3.46,290.63,290.63,0,0,1-20.45,35.54c-11.15,16.45-14.26,35.72-4,48.36.19-.11,7-4,18.17-4.91A125.46,125.46,0,0,1,79.77,238.32Z" transform="translate(-18.74 -11.16)"/><path class="cls-5" d="M84.18,302.67l.22,0h0Z" transform="translate(-18.74 -11.16)"/><path class="cls-6" d="M64.57,302.39l-.57-.31Z" transform="translate(-18.74 -11.16)"/><path class="cls-6" d="M63.93,302l-.15-.09Z" transform="translate(-18.74 -11.16)"/><path class="cls-6" d="M77.56,301.67c-.25.17-.49.33-.74.48C77.06,302,77.31,301.84,77.56,301.67Z" transform="translate(-18.74 -11.16)"/><path class="cls-6" d="M76.63,302.26l-.54.3Z" transform="translate(-18.74 -11.16)"/><path class="cls-6" d="M64.91,302.56l-.32-.16Z" transform="translate(-18.74 -11.16)"/><path class="cls-6" d="M63.36,301.69l0,0Z" transform="translate(-18.74 -11.16)"/><path class="cls-6" d="M63.72,301.92l-.12-.07Z" transform="translate(-18.74 -11.16)"/><path class="cls-6" d="M63.43,301.73l-.06,0Z" transform="translate(-18.74 -11.16)"/><path class="cls-6" d="M63.55,301.81l-.08-.05Z" transform="translate(-18.74 -11.16)"/><path class="cls-6" d="M232.71,302.4l-.32.16Z" transform="translate(-18.74 -11.16)"/><path class="cls-6" d="M221.23,302.56l-.55-.3Z" transform="translate(-18.74 -11.16)"/><path class="cls-6" d="M220.49,302.15c-.25-.15-.49-.31-.74-.48C220,301.84,220.24,302,220.49,302.15Z" transform="translate(-18.74 -11.16)"/><path class="cls-6" d="M234,301.67l0,0Z" transform="translate(-18.74 -11.16)"/><path class="cls-6" d="M233.93,301.7l-.05,0Z" transform="translate(-18.74 -11.16)"/><path class="cls-6" d="M233.31,302.08l-.57.31Z" transform="translate(-18.74 -11.16)"/><path class="cls-6" d="M233.84,301.76l-.08.05Z" transform="translate(-18.74 -11.16)"/><path class="cls-6" d="M233.71,301.85l-.12.07Z" transform="translate(-18.74 -11.16)"/><path class="cls-6" d="M233.53,302l-.15.09Z" transform="translate(-18.74 -11.16)"/><path class="cls-6" d="M232.6,270.23s-6.85-4-18.18-4.91a105.07,105.07,0,0,1-5.89,18.51c2.06,1.62,7.7,6.81,6.81,14.47a1,1,0,0,1-1,.92h-.12a1,1,0,0,1-.91-1.15c.92-7.89-6.54-13-6.62-13a1,1,0,0,1-.43-.62,40.32,40.32,0,0,1-14.86.22c-9.16-1.53-14.93-12.87-7.35-25.53,11-18.46,14.63-41.36-3.59-58.42-1.34.88-2.73,1.71-4.16,2.49v0l-.85.45-.36.2h0a61.67,61.67,0,0,1-12.14,4.68c-.37,7-6,8.52-10.52,9a31.73,31.73,0,0,1-7.9,0c-4.56-.4-10.19-2-10.53-9.06a60.15,60.15,0,0,1-11.48-4.72h0l-.32-.18-1-.56v0c-1.38-.79-2.72-1.63-4-2.52-18.51,17.09-15,40.12-3.85,58.66,7.58,12.66,1.8,24-7.35,25.53a40.34,40.34,0,0,1-14.86-.22,1,1,0,0,1-.43.62c-.07.05-7.53,5.17-6.62,13a1,1,0,0,1-.91,1.15H83a1,1,0,0,1-1-.92c-.89-7.66,4.75-12.86,6.81-14.47a105.07,105.07,0,0,1-5.89-18.51c-11.18.94-18,4.8-18.17,4.91h0l.25.28q.48.57,1,1.13l.41.44c.48.49,1,1,1.5,1.44,0,0-9.88,5.24-12.85,14.1-.16.47-.29.93-.4,1.38l0,.15c-.1.43-.18.84-.24,1.25l0,.2q-.08.6-.11,1.17c0,.06,0,.13,0,.19,0,.38,0,.75,0,1.12,0,.05,0,.1,0,.15,0,.37.07.74.13,1.09v.05a10.22,10.22,0,0,0,.24,1l0,.07a9.12,9.12,0,0,0,.33.94l0,.12a8.48,8.48,0,0,0,.41.84l.07.13a8.82,8.82,0,0,0,.49.76l.08.11a8.88,8.88,0,0,0,.58.7l.06.06a8.55,8.55,0,0,0,.67.64h0a8.1,8.1,0,0,0,.73.55l.08.05a8.39,8.39,0,0,0,.75.43l.12.06a8,8,0,0,0,.78.33l.13,0a7.89,7.89,0,0,0,.82.24l.1,0a7.82,7.82,0,0,0,.88.15h0l.66,0h.18c.24,0,.48,0,.71,0L64,296.3a.83.83,0,1,1,1.65.19l-.69,6.08a12.4,12.4,0,0,0,11.08,0l-.67-5.81A.83.83,0,0,1,77,296.6l.56,5.07,0,0h0l.45.19.06,0c.22.08.5.18.82.28l.11,0,.51.14h0l.56.13.16,0,.59.11h0l.65.08.19,0,.67,0h.05l.71,0h.2l.72-.08h0l.22,0h0c3.77,6.4,13.31,3.63,13.31,3.63l1.12-7.49a.83.83,0,1,1,1.65.24l-1.23,8.21a16.33,16.33,0,0,0,7.66,2,14.84,14.84,0,0,0,7.18-1.86l-.29-8a.83.83,0,0,1,1.66-.1l.29,7c6,3.41,18.37,2,22.11-10.49.29-1,.55-2,.8-3a55.2,55.2,0,0,0,20,0c.25,1,.52,2,.81,3,3.74,12.52,16.09,13.9,22.11,10.49l.29-7a.83.83,0,0,1,1.66.1l-.29,8a14.84,14.84,0,0,0,7.18,1.86,16.33,16.33,0,0,0,7.66-2L196.83,299a.83.83,0,1,1,1.65-.24l1.12,7.49s9.55,2.77,13.31-3.64a12.49,12.49,0,0,0,6.84-1l.56-5.07a.83.83,0,0,1,1.65.19l-.67,5.81a12.4,12.4,0,0,0,11.08,0l-.69-6.08a.83.83,0,1,1,1.65-.19l.64,5.37c5.84.49,11.3-5.19,8.33-14.06s-12.85-14.1-12.85-14.1c.52-.47,1-1,1.5-1.44l.41-.44C231.79,271.17,232.21,270.71,232.6,270.23ZM139,292.48h-.15a.94.94,0,0,1-.88-1,220.33,220.33,0,0,0,2.44-30.81,1,1,0,0,1,1-.9h0a1,1,0,0,1,1,.92,222,222,0,0,1-2.47,31A1,1,0,0,1,139,292.48Zm19.51,0h-.15a1,1,0,0,1-1-.78,222.19,222.19,0,0,1-2.47-31,1,1,0,0,1,1-.92h0a1,1,0,0,1,1,.9,220.27,220.27,0,0,0,2.44,30.81A.94.94,0,0,1,158.48,292.47Z" transform="translate(-18.74 -11.16)"/><path class="cls-6" d="M97.77,306.31l0,0Z" transform="translate(-18.74 -11.16)"/><path class="cls-6" d="M98.1,306.54l0,0Z" transform="translate(-18.74 -11.16)"/><path class="cls-6" d="M98.45,306.76l-.09-.05Z" transform="translate(-18.74 -11.16)"/><path class="cls-6" d="M115.62,306.37l0,0Z" transform="translate(-18.74 -11.16)"/><path class="cls-6" d="M181.6,306.3h0Z" transform="translate(-18.74 -11.16)"/><path class="cls-6" d="M97.9,306.4l0,0Z" transform="translate(-18.74 -11.16)"/><path class="cls-6" d="M115.72,306.29h0Z" transform="translate(-18.74 -11.16)"/><path class="cls-6" d="M115.17,306.7l0,0Z" transform="translate(-18.74 -11.16)"/><path class="cls-6" d="M114.42,307.18l-.11.06Z" transform="translate(-18.74 -11.16)"/><path class="cls-6" d="M98.82,307l-.13-.08Z" transform="translate(-18.74 -11.16)"/><path class="cls-6" d="M99.23,307.21l-.12-.07Z" transform="translate(-18.74 -11.16)"/><path class="cls-6" d="M183,307.24l-.11-.06Z" transform="translate(-18.74 -11.16)"/><path class="cls-6" d="M181.73,306.41l0,0Z" transform="translate(-18.74 -11.16)"/><path class="cls-6" d="M199.24,306.52l0,0Z" transform="translate(-18.74 -11.16)"/><path class="cls-6" d="M199.45,306.37l0,0Z" transform="translate(-18.74 -11.16)"/><path class="cls-6" d="M198.62,306.91l-.13.08Z" transform="translate(-18.74 -11.16)"/><path class="cls-6" d="M199.56,306.29l0,0Z" transform="translate(-18.74 -11.16)"/><path class="cls-6" d="M198.94,306.71l-.09.05Z" transform="translate(-18.74 -11.16)"/><path class="cls-6" d="M198.2,307.15l-.12.07Z" transform="translate(-18.74 -11.16)"/><path class="cls-6" d="M181.93,306.55l-.06,0Z" transform="translate(-18.74 -11.16)"/><path class="cls-6" d="M182.18,306.73l0,0Z" transform="translate(-18.74 -11.16)"/><path class="cls-6" d="M115.44,306.51l-.06,0Z" transform="translate(-18.74 -11.16)"/><path class="cls-7" d="M91,283.7c-.09-.18-9-18.82-9.16-45.39a130.16,130.16,0,0,1,5.55-37.57,1,1,0,0,0-2-.6,132.33,132.33,0,0,0-5.64,38.18,125.46,125.46,0,0,0,3.12,27,105.07,105.07,0,0,0,5.89,18.51c-2.06,1.62-7.7,6.81-6.81,14.47a1,1,0,0,0,1,.92h.12a1,1,0,0,0,.91-1.15c-.91-7.87,6.54-13,6.62-13A1.06,1.06,0,0,0,91,283.7Z" transform="translate(-18.74 -11.16)"/><path class="cls-7" d="M206.66,285c.08.05,7.53,5.14,6.62,13a1,1,0,0,0,.91,1.15h.12a1,1,0,0,0,1-.92c.89-7.66-4.75-12.86-6.81-14.47a105.07,105.07,0,0,0,5.89-18.51,125.4,125.4,0,0,0,3.12-27,132.33,132.33,0,0,0-5.64-38.18,1,1,0,0,0-2,.6,130.19,130.19,0,0,1,5.55,37.57c-.15,26.58-9.07,45.21-9.16,45.39a1,1,0,0,0-.07.7A1,1,0,0,0,206.66,285Z" transform="translate(-18.74 -11.16)"/><path class="cls-7" d="M142.47,260.65a1,1,0,0,0-1-.92h0a1,1,0,0,0-1,.9,220.33,220.33,0,0,1-2.44,30.81.94.94,0,0,0,.88,1H139a1,1,0,0,0,1-.78A222,222,0,0,0,142.47,260.65Z" transform="translate(-18.74 -11.16)"/><path class="cls-7" d="M159.36,291.44a220.27,220.27,0,0,1-2.44-30.81,1,1,0,0,0-1-.9h0a1,1,0,0,0-1,.92,222.19,222.19,0,0,0,2.47,31,1,1,0,0,0,1,.78h.15A.94.94,0,0,0,159.36,291.44Z" transform="translate(-18.74 -11.16)"/><path class="cls-7" d="M64.89,295.57a.83.83,0,0,0-.92.73l-.64,5.37,0,0h0l.06,0,0,0,.08.05.05,0,.12.07.06,0,.15.09.07,0,.57.31h0l.32.16h0l.69-6.08A.83.83,0,0,0,64.89,295.57Z" transform="translate(-18.74 -11.16)"/><path class="cls-7" d="M76.07,295.87a.83.83,0,0,0-.73.92L76,302.6h0l.07,0,.54-.3.19-.11c.25-.15.49-.31.74-.48L77,296.6A.83.83,0,0,0,76.07,295.87Z" transform="translate(-18.74 -11.16)"/><path class="cls-7" d="M114.58,298.48a.83.83,0,0,0-.78.88l.29,8h0l.21-.12.11-.06c.28-.16.51-.32.71-.45l0,0,.21-.15.06,0,.13-.1,0,0,.08-.07h0l0,0-.29-7A.83.83,0,0,0,114.58,298.48Z" transform="translate(-18.74 -11.16)"/><path class="cls-7" d="M99.78,298.07a.83.83,0,0,0-.95.7l-1.12,7.49,0,0,0,0,.09.06,0,0,.17.12,0,0,.26.17.09.05.24.14.13.08.29.16.12.07h0l1.23-8.21A.83.83,0,0,0,99.78,298.07Z" transform="translate(-18.74 -11.16)"/><path class="cls-7" d="M232.42,295.57a.83.83,0,0,0-.73.92l.69,6.08h0l.32-.16h0l.57-.31.07,0,.15-.09.06,0,.12-.07.05,0,.08-.05,0,0,.05,0h0l0,0-.64-5.37A.83.83,0,0,0,232.42,295.57Z" transform="translate(-18.74 -11.16)"/><path class="cls-7" d="M221.24,295.87a.83.83,0,0,0-.92.73l-.56,5.07c.25.17.49.33.74.48l.19.11.55.3.07,0h0l.67-5.81A.83.83,0,0,0,221.24,295.87Z" transform="translate(-18.74 -11.16)"/><path class="cls-7" d="M182.72,298.48a.83.83,0,0,0-.88.78l-.29,7,0,0h0l.09.07,0,0,.13.1.06,0,.21.15,0,0c.19.13.43.29.71.45l.11.06.21.12h0l.29-8A.83.83,0,0,0,182.72,298.48Z" transform="translate(-18.74 -11.16)"/><path class="cls-7" d="M197.53,298.07a.83.83,0,0,0-.7.95l1.23,8.21h0l.12-.07.29-.16.13-.08.24-.14.09-.05.26-.17,0,0,.17-.12,0,0,.09-.06,0,0,0,0-1.12-7.49A.83.83,0,0,0,197.53,298.07Z" transform="translate(-18.74 -11.16)"/><path class="cls-8" d="M122.49,203.71h0l-.32-.18Z" transform="translate(-18.74 -11.16)"/><path class="cls-8" d="M121.16,188.76a51.71,51.71,0,0,1-8.22,1.08,60,60,0,0,1-6.49-.06l-.14.44a45.85,45.85,0,0,0,10.84,10.21c1.29.89,2.63,1.73,4,2.52Z" transform="translate(-18.74 -11.16)"/><path class="cls-9" d="M175.05,203.82l.36-.2-.36.19Z" transform="translate(-18.74 -11.16)"/><path class="cls-9" d="M185.29,189.85a53.12,53.12,0,0,1-9-1.25v14.56c1.43-.78,2.82-1.61,4.16-2.49a44.74,44.74,0,0,0,11.31-10.44l-.3-.42A59.67,59.67,0,0,1,185.29,189.85Z" transform="translate(-18.74 -11.16)"/><path class="cls-10" d="M176.27,188.6c-1.93-.42-3.42-.81-4.31-.94a27.47,27.47,0,0,1-9.29,4.52c.12,2.14.52,10,.26,16.17,0,.05,0,.1,0,.15a61.67,61.67,0,0,0,12.14-4.68l.36-.19.85-.45V188.6Z" transform="translate(-18.74 -11.16)"/><path class="cls-11" d="M134.26,191.76a26.51,26.51,0,0,1-8-4.11c-1,.14-2.78.63-5.11,1.11V203l1,.56.32.18A60.15,60.15,0,0,0,134,208.43s0-.06,0-.09C133.66,201.17,134.25,191.79,134.26,191.76Z" transform="translate(-18.74 -11.16)"/><path class="cls-12" d="M141.91,204.55c.14,4.57,2.69,5.57,4.75,5.82a10.14,10.14,0,0,0,3.56,0c2-.3,4.48-1.22,4.73-5.5a3.3,3.3,0,0,1-.59.06,3.09,3.09,0,1,1,0-6.17,3.28,3.28,0,0,1,.62.06c0-2.11-.08-4-.12-5.15a56,56,0,0,1-11.59,0c-.43,0-.85-.11-1.27-.17C141.95,195.65,141.81,201,141.91,204.55Z" transform="translate(-18.74 -11.16)"/><path class="cls-13" d="M162.66,192.17a44.25,44.25,0,0,1-7.73,1.49h-.06c0,1.11.09,3,.12,5.15a3.07,3.07,0,0,1,0,6.05c-.25,4.28-2.72,5.2-4.73,5.5a10.14,10.14,0,0,1-3.56,0c-2.06-.26-4.62-1.25-4.75-5.82-.1-3.58,0-8.9.1-11.05a42,42,0,0,1-7.76-1.73s-.6,9.4-.3,16.58c0,0,0,.06,0,.09.34,7.1,6,8.66,10.53,9.06a31.73,31.73,0,0,0,7.9,0c4.53-.48,10.15-2,10.52-9,0-.05,0-.1,0-.15C163.18,202.19,162.78,194.31,162.66,192.17Z" transform="translate(-18.74 -11.16)"/><path class="cls-14" d="M151.23,201.84a3.11,3.11,0,0,0,3.14,3.09,3.3,3.3,0,0,0,.59-.06,3.07,3.07,0,0,0,0-6.05,3.28,3.28,0,0,0-.62-.06A3.11,3.11,0,0,0,151.23,201.84Z" transform="translate(-18.74 -11.16)"/><path class="cls-7" d="M195.15,28.7c-1.67-4.91-5.78-3.81-8.66-.94a27.65,27.65,0,0,0-2.09,3L181.67,36l.11-.28c.12-.29.25-.6.38-.9-.38.8-.64,1.4-.75,1.66a144.17,144.17,0,0,1,16,4.11A67.74,67.74,0,0,0,195.15,28.7Z" transform="translate(-18.74 -11.16)"/><path class="cls-6" d="M106.45,189.78a60,60,0,0,0,6.49.06,51.71,51.71,0,0,0,8.22-1.08c2.33-.48,4.1-1,5.11-1.11a26.51,26.51,0,0,0,8,4.11,42,42,0,0,0,7.76,1.73c.42.06.84.12,1.27.17a56,56,0,0,0,11.59,0h.06a44.25,44.25,0,0,0,7.73-1.49,27.47,27.47,0,0,0,9.29-4.52c.89.13,2.38.52,4.31.94a53.12,53.12,0,0,0,9,1.25,59.67,59.67,0,0,0,6.15,0,69.08,69.08,0,0,0,16.88-3.23,93,93,0,0,0,13.07-5.29q2.83-1.4,5.52-3.07c10.15-11.79,15.9-23.43,18.9-40.34,5.48-28.55-5.85-55.42-27.6-68.33-7.92,1.53-15.25,2.27-16.3,1.25-.89-.41-1.56-3.64-2.15-8.17a60.05,60.05,0,0,0-50.63,13.61,61.92,61.92,0,0,0-40.34-14.67c-39.55.83-63.89,37-56.34,76.32,3,16.9,8.74,28.54,18.89,40.34q2.69,1.67,5.52,3.07a93.6,93.6,0,0,0,12.27,5A69.47,69.47,0,0,0,106.45,189.78Zm68.29-109c.55-1.38,3.09-1.18,6,.45s4.41,3.66,3.47,4.83-3,.32-5.62-1.14S174.19,82.13,174.74,80.76ZM177,96.36a7.13,7.13,0,1,1-7.13,7.13A7.13,7.13,0,0,1,177,96.36Zm-48.57,7.13a7.13,7.13,0,1,1-7.13-7.13A7.13,7.13,0,0,1,128.39,103.49ZM117.46,81.21c2.93-1.62,5.47-1.83,6-.45s-1.26,2.68-3.87,4.14S114.91,87.2,114,86,114.54,82.84,117.46,81.21Zm-7.79,56.84a1.42,1.42,0,0,1,2.76.63,10.06,10.06,0,0,0-.25,2.24c0,9.72,12,10.77,17.22,10.77a18.55,18.55,0,0,0,8.95-2.17l.26-.15c4.76-2.7,7.93-7.65,8.81-14-9.22-.4-16.45-4.12-16.45-10.54,0-7,8.11-11.17,18.13-11.17s18.13,4.21,18.13,11.17c0,6.42-7.22,10.14-16.45,10.54.88,6.42,4.08,11.38,8.88,14.08l.1.06a18.53,18.53,0,0,0,9,2.21c5.18,0,17.23-1,17.23-10.77a10,10,0,0,0-.25-2.23,1.42,1.42,0,0,1,2.76-.64,12.83,12.83,0,0,1,.32,2.87c0,8.52-7.5,13.61-20.06,13.61a22.24,22.24,0,0,1-8.59-1.63c-2.25,5-6.43,8-11.42,8S140,158,137.87,152.94a22.3,22.3,0,0,1-8.46,1.59c-12.56,0-20.06-5.09-20.06-13.61A12.88,12.88,0,0,1,109.67,138.05Z" transform="translate(-18.74 -11.16)"/><path class="cls-5" d="M108.77,61.56a61.92,61.92,0,0,1,40.34,14.67,60.05,60.05,0,0,1,50.63-13.61c-.8-6.13-1.46-14.67-2.36-22a144.17,144.17,0,0,0-16-4.11,176.34,176.34,0,0,0-32.3-3.26,177.63,177.63,0,0,0-30.28,2.87c-1.56-3.51-5.18-8.49-14.81-14.39-11.43-8.17-29-12-31.56-10.09-3.06.93-11.06,15.5-12.5,29.74-1.11,11,.09,17.66,1.09,21.72h0c-17.44,16.38-25.68,38.46-21.48,63.63,0,.13,0,.27.06.4.1.67.21,1.34.33,2l.08.44c.12.66.24,1.31.38,2l.09.41q.21,1,.43,2l.08.35q.24,1,.5,2l.07.27q.28,1,.57,2.05l0,.16A71,71,0,0,0,59.16,168.4l.09.09q.64.66,1.29,1.29l.19.18q.62.59,1.24,1.16l.23.21,1.25,1.1.23.2q.66.56,1.33,1.1l.18.14q.75.6,1.52,1.18h0q2.25,1.69,4.62,3.16h0c-10.15-11.79-15.9-23.43-18.89-40.34C44.88,98.56,69.22,62.39,108.77,61.56ZM75,41.91c.48-4,3.2-11.16,5.5-12.69a3.13,3.13,0,0,1,1.87-.48c2.52,0,7.8,1.54,11.41,3.76,5.63,2.94,8.09,6,7.33,9.13-.64,2.66-3.87,4.22-7.94,6.2-1,.49-2.07,1-3.14,1.56-4.69,2.44-8.33,4.06-10.85,4.06a4.6,4.6,0,0,1-1.72-.3C74.61,52,73.79,48.24,75,41.91Z" transform="translate(-18.74 -11.16)"/><path class="cls-5" d="M237.77,63.68c-3.62,2.13-11.87,4.37-19.58,5.87,21.75,12.91,33.08,39.79,27.6,68.33-3,16.91-8.74,28.54-18.9,40.34h0l1.22-.78.17-.11q1.63-1.07,3.19-2.24l.22-.17,1.3-1,.35-.29,1.13-.94.4-.34,1.07-.94.39-.35,1.06-1,.36-.34c.37-.36.73-.72,1.09-1.09l.28-.28q.61-.63,1.21-1.28l.13-.14a66.26,66.26,0,0,0,5.13-6.39l0-.07q.57-.81,1.12-1.64l.09-.14q.53-.81,1-1.63l.09-.14q.52-.85,1-1.71l.05-.09a75.92,75.92,0,0,0,7-16.41l0-.12q.31-1,.59-2.1l.06-.21q.27-1,.52-2.07l.06-.26q.24-1,.46-2.08l.06-.28q.22-1.07.41-2.15l0-.24c.14-.8.28-1.62.4-2.44a77.59,77.59,0,0,0,1.08-12.2C259.88,94.71,252,77.27,237.77,63.68Z" transform="translate(-18.74 -11.16)"/><path class="cls-6" d="M77.42,53.13a4.6,4.6,0,0,0,1.72.3c2.52,0,6.16-1.62,10.85-4.06,1.07-.55,2.13-1.07,3.14-1.56,4.08-2,7.3-3.54,7.94-6.2.76-3.12-1.7-6.19-7.33-9.13-3.6-2.22-8.89-3.76-11.41-3.76a3.13,3.13,0,0,0-1.87.48c-2.3,1.53-5,8.65-5.5,12.69C73.79,48.24,74.61,52,77.42,53.13Z" transform="translate(-18.74 -11.16)"/><path class="cls-15" d="M181.67,36l2.73-5.32.58-1.12a12,12,0,0,1,1.51-1.83c2.88-2.87,7-4,8.66.94a67.74,67.74,0,0,1,2.22,11.93c.9,7.32,1.56,15.86,2.36,22,.59,4.54,1.26,7.76,2.15,8.17,1,1,8.38.28,16.3-1.25,7.71-1.49,16-3.74,19.58-5.87h0a4.4,4.4,0,0,0,1.78-1.57c1-2.14-6.33-13.85-17-23.59-11.32-10.29-22.06-18.47-28.81-16.84-4.73,1.14-9.24,7.87-11.54,13.17-.13.31-.26.61-.38.9Z" transform="translate(-18.74 -11.16)"/><path class="cls-16" d="M114.13,103.49a7.13,7.13,0,1,0,7.13-7.13A7.13,7.13,0,0,0,114.13,103.49Zm10,0a2.84,2.84,0,1,1-2.84-2.84A2.84,2.84,0,0,1,124.1,103.49Z" transform="translate(-18.74 -11.16)"/><path class="cls-1" d="M118.42,103.49a2.84,2.84,0,1,0,2.84-2.84A2.84,2.84,0,0,0,118.42,103.49Z" transform="translate(-18.74 -11.16)"/><path class="cls-16" d="M177,110.61a7.13,7.13,0,1,0-7.13-7.13A7.13,7.13,0,0,0,177,110.61Zm0-10a2.84,2.84,0,1,1-2.84,2.84A2.84,2.84,0,0,1,177,100.64Z" transform="translate(-18.74 -11.16)"/><circle class="cls-1" cx="158.22" cy="92.32" r="2.84"/><path class="cls-16" d="M119.61,84.9c2.62-1.46,4.42-2.77,3.87-4.14s-3.09-1.18-6,.45S113.06,84.87,114,86,117,86.35,119.61,84.9Z" transform="translate(-18.74 -11.16)"/><path class="cls-16" d="M178.61,84.9c2.62,1.45,4.7,2.3,5.62,1.14s-.55-3.2-3.47-4.83-5.48-1.83-6-.45S176,83.44,178.61,84.9Z" transform="translate(-18.74 -11.16)"/><path class="cls-17" d="M138.36,149.53l.26-.15Z" transform="translate(-18.74 -11.16)"/><path class="cls-17" d="M159.67,149.43l.1.06Z" transform="translate(-18.74 -11.16)"/><path class="cls-17" d="M149.11,140.68a19.67,19.67,0,0,1-11.24,12.26c2.12,5.07,6,7.94,10.93,7.94s9.17-3,11.42-8A19.68,19.68,0,0,1,149.11,140.68Z" transform="translate(-18.74 -11.16)"/><path class="cls-16" d="M129.41,154.52a22.3,22.3,0,0,0,8.46-1.59,19.67,19.67,0,0,0,11.24-12.26,19.68,19.68,0,0,0,11.11,12.21,22.24,22.24,0,0,0,8.59,1.63c12.56,0,20.06-5.09,20.06-13.61a12.83,12.83,0,0,0-.32-2.87,1.42,1.42,0,0,0-2.76.64,10,10,0,0,1,.25,2.23c0,9.72-12,10.77-17.23,10.77a18.53,18.53,0,0,1-9-2.21l-.1-.06c-4.81-2.7-8-7.66-8.88-14.08,9.22-.4,16.45-4.12,16.45-10.54,0-7-8.11-11.17-18.13-11.17S131,117.85,131,124.81c0,6.42,7.22,10.14,16.45,10.54-.88,6.39-4,11.33-8.81,14l-.26.15a18.55,18.55,0,0,1-8.95,2.17c-5.18,0-17.22-1-17.22-10.77a10.06,10.06,0,0,1,.25-2.24,1.42,1.42,0,0,0-2.76-.63,12.88,12.88,0,0,0-.32,2.87C109.35,149.44,116.85,154.52,129.41,154.52Z" transform="translate(-18.74 -11.16)"/></g></svg>