<svg xmlns="http://www.w3.org/2000/svg" viewBox="0 0 289.5 343.85"><defs><style>.cls-1{fill:#fff;}.cls-2{font-size:9px;font-family:Helvetica-Bold, Helvetica;font-weight:700;}.cls-3{letter-spacing:-0.04em;}.cls-4{letter-spacing:-0.02em;}.cls-5{fill:#fbeeb4;}.cls-6{fill:#d2812e;}.cls-7{fill:#a56522;}.cls-8{fill:#8b3e8d;}.cls-9{fill:#c50018;}.cls-10{fill:#fff000;}.cls-11{fill:#009fe6;}.cls-12{fill:#63ac6b;}.cls-13{fill:#e6e6e6;}.cls-14{fill:#b3b3b3;}.cls-15{fill:#da8f41;}.cls-16{fill:#251e1c;}.cls-17{fill:#c72d2a;}</style></defs><title>niji8-side</title><g id="CC-BY_4.0" data-name="CC-BY 4.0"><circle class="cls-1" cx="19.15" cy="326.83" r="14.42"/><path d="M34.72,322.93a15.62,15.62,0,0,1,11.43,4.69,15.4,15.4,0,0,1,3.43,5.16,16.87,16.87,0,0,1,0,12.32,14.69,14.69,0,0,1-3.42,5.07,16.45,16.45,0,0,1-5.32,3.54,15.93,15.93,0,0,1-6.15,1.23,15.56,15.56,0,0,1-6.07-1.22,16.47,16.47,0,0,1-8.7-8.7,16,16,0,0,1,0-12.19,16.07,16.07,0,0,1,3.53-5.25A15.13,15.13,0,0,1,34.72,322.93Zm.06,2.89a12.41,12.41,0,0,0-9.23,3.83,13.76,13.76,0,0,0-2.9,4.3,12.69,12.69,0,0,0,0,9.95A13.55,13.55,0,0,0,29.81,351a13,13,0,0,0,10,0,13.82,13.82,0,0,0,4.36-2.89,12.3,12.3,0,0,0,3.74-9.18,13.14,13.14,0,0,0-1-5,12.8,12.8,0,0,0-2.83-4.23A12.67,12.67,0,0,0,34.78,325.82Zm-.2,10.46-2.14,1.11a2.2,2.2,0,0,0-.84-1,1.9,1.9,0,0,0-.93-.29q-2.14,0-2.14,2.83a3.51,3.51,0,0,0,.54,2.06,1.83,1.83,0,0,0,1.6.77,2,2,0,0,0,2-1.37l2,1a4.94,4.94,0,0,1-7.66,1.2,5.68,5.68,0,0,1,0-7.29A4.53,4.53,0,0,1,30.32,334,4.49,4.49,0,0,1,34.58,336.28Zm9.23,0-2.12,1.11a2.2,2.2,0,0,0-.84-1,1.94,1.94,0,0,0-1-.29q-2.14,0-2.14,2.83a3.51,3.51,0,0,0,.54,2.06,1.83,1.83,0,0,0,1.6.77,2,2,0,0,0,2-1.37l2,1a4.91,4.91,0,0,1-1.77,1.84,5,5,0,0,1-5.9-.64,5.7,5.7,0,0,1,0-7.29A4.53,4.53,0,0,1,39.58,334,4.42,4.42,0,0,1,43.81,336.28Z" transform="translate(-15.74 -12.1)"/><circle class="cls-1" cx="55.79" cy="326.99" r="14.14"/><path d="M71.44,322.93a15.86,15.86,0,0,1,16,16,15.09,15.09,0,0,1-4.57,11.23,15.81,15.81,0,0,1-11.46,4.77,16.11,16.11,0,0,1-16-16,15.69,15.69,0,0,1,4.72-11.38A15.33,15.33,0,0,1,71.44,322.93Zm.06,2.89a12.46,12.46,0,0,0-9.23,3.83,12.88,12.88,0,0,0-3.92,9.29A13.27,13.27,0,0,0,71.49,352a12.85,12.85,0,0,0,9.32-3.92,12.19,12.19,0,0,0,3.77-9.18,13.08,13.08,0,0,0-13.09-13.12ZM75.78,335v6.55H74v7.77H69v-7.77H67.15V335a1,1,0,0,1,1-1h6.57a1,1,0,0,1,.71.3A1,1,0,0,1,75.78,335Zm-6.55-4.12a2.23,2.23,0,1,1,2.23,2.23A2,2,0,0,1,69.23,330.85Z" transform="translate(-15.74 -12.1)"/><text class="cls-2" transform="translate(79.94 317.92)">Some rights reserved by mixi, Inc.<tspan x="0" y="10.8">with Creative Commons</tspan><tspan class="cls-3" x="102.52" y="10.8"> </tspan><tspan x="104.69" y="10.8">Attribution 4.0 Interna</tspan><tspan x="198.2" y="10.8">-</tspan><tspan x="0" y="21.6">tional (CC-B</tspan><tspan class="cls-4" x="51.99" y="21.6">Y</tspan><tspan x="57.84" y="21.6" xml:space="preserve"> 4.0)</tspan></text></g><g id="niji8-side"><path class="cls-5" d="M45.29,221.08c-16.62,8.69-13.37,33.47,4.7,41.4a24.81,24.81,0,0,0,21.17,0,68.59,68.59,0,0,1,3-13.28c-3,.39-9.81.23-12.48-8.33-3.16-10.12,6.67-13.67,12.21-16.24l.56-.28h0C74.23,224.15,61.79,212.45,45.29,221.08Z" transform="translate(-15.74 -12.1)"/><path class="cls-6" d="M257.62,273.36l-.1.26Z" transform="translate(-15.74 -12.1)"/><path class="cls-6" d="M257.48,273.74l-.1.26Z" transform="translate(-15.74 -12.1)"/><path class="cls-6" d="M257.29,274.22l0,0Z" transform="translate(-15.74 -12.1)"/><path class="cls-6" d="M258,272.22l-.13.36Z" transform="translate(-15.74 -12.1)"/><path class="cls-6" d="M258.57,270.65l-.15.46Z" transform="translate(-15.74 -12.1)"/><path class="cls-6" d="M258.33,271.38l-.2.59Z" transform="translate(-15.74 -12.1)"/><path class="cls-6" d="M257.36,274l-.06.15Z" transform="translate(-15.74 -12.1)"/><path class="cls-6" d="M257.84,272.78l-.16.44Z" transform="translate(-15.74 -12.1)"/><path class="cls-6" d="M125.67,300.36l-.64,0Z" transform="translate(-15.74 -12.1)"/><path class="cls-6" d="M124.68,300.3l-.58-.08Z" transform="translate(-15.74 -12.1)"/><path class="cls-6" d="M126.84,300.32c-.29,0-.59,0-.89,0C126.25,300.36,126.54,300.35,126.84,300.32Z" transform="translate(-15.74 -12.1)"/><path class="cls-6" d="M121.89,299.66q-.46-.16-.91-.36Q121.43,299.49,121.89,299.66Z" transform="translate(-15.74 -12.1)"/><path class="cls-6" d="M123.74,300.16l-.58-.12Z" transform="translate(-15.74 -12.1)"/><path class="cls-6" d="M134.06,286.41c0,.18.09.36.13.54l.08-.57Z" transform="translate(-15.74 -12.1)"/><path class="cls-6" d="M122.81,299.95l-.62-.19Z" transform="translate(-15.74 -12.1)"/><path class="cls-6" d="M127.71,300.18c-.23,0-.47.08-.7.11C127.25,300.26,127.48,300.23,127.71,300.18Z" transform="translate(-15.74 -12.1)"/><path class="cls-6" d="M132.45,297.39c-.14.17-.29.33-.44.49C132.16,297.72,132.31,297.56,132.45,297.39Z" transform="translate(-15.74 -12.1)"/><path class="cls-6" d="M123.79,270.11c1.18-4.77,2.76-13.44,1.38-21.81-2-12.11-13.38-17.26-13.49-17.31a1,1,0,1,1,.84-1.9,28,28,0,0,1,12.4,11.9c-.8-8.22-1.17-14.25-1.21-14.89a1,1,0,0,1,2.08-.12c0,.36,2,31.46,6.71,51,3.17.11,12.52.08,17.31-3.57,5.83-4.44,5.83-14.29,3.47-20.67s-7.91-16.65-7.77-30.52a28.34,28.34,0,0,1,10.2-22,44.6,44.6,0,0,1-9.16-9l.14-.44c-7.14-.45-17.13-2.35-29.6-8.5-.53-.26-1.06-.53-1.58-.81-4.25,7.81-14.29,25.41-25,38.45a90.64,90.64,0,0,0-16.32,29.3,68.59,68.59,0,0,0-3,13.28,24.81,24.81,0,0,1-21.17,0c-18.07-7.93-21.32-32.71-4.7-41.4s28.94,3.06,29.12,3.23c4.66-2.46,7.3-7.85,3.4-14.59A14,14,0,0,0,58,204.84s-13.61-10.31-30.28,3-14.45,38.93-2.37,54.38c10.93,14,31.18,15.85,45.52,8.52,0,.33,0,.67,0,1a156,156,0,0,1,28.51-3.55A118.45,118.45,0,0,1,123.79,270.11Z" transform="translate(-15.74 -12.1)"/><path class="cls-6" d="M131.85,298.06a7.32,7.32,0,0,1-.66.58A7.32,7.32,0,0,0,131.85,298.06Z" transform="translate(-15.74 -12.1)"/><path class="cls-6" d="M132.88,296.82v0l-.23.33C132.73,297,132.81,296.92,132.88,296.82Z" transform="translate(-15.74 -12.1)"/><path class="cls-6" d="M128.57,300l-.55.14Z" transform="translate(-15.74 -12.1)"/><path class="cls-6" d="M129.39,299.67l-.51.19Z" transform="translate(-15.74 -12.1)"/><path class="cls-6" d="M131,298.75c-.18.13-.36.26-.55.38C130.66,299,130.84,298.88,131,298.75Z" transform="translate(-15.74 -12.1)"/><path class="cls-6" d="M130.2,299.28l-.5.26Z" transform="translate(-15.74 -12.1)"/><path class="cls-6" d="M131.34,280.78l-.1-.36a167.28,167.28,0,0,1-3.81-18.89,69.47,69.47,0,0,1-2.41,12,1,1,0,0,1-1,.74,1,1,0,0,1-.3,0h0l0,.07A22.76,22.76,0,0,1,131.34,280.78Z" transform="translate(-15.74 -12.1)"/><path class="cls-5" d="M247.31,277.36c2.37,1.38,9.84,6.46,10,15.43a14.3,14.3,0,0,1-.35,3.58,1,1,0,0,1-1,.8l-.24,0a1,1,0,0,1-.78-1.25,12.24,12.24,0,0,0,.29-3.06c-.21-9.18-9.5-14-9.59-14a1,1,0,0,1-.56-.9c-3,0-12-.21-17.34-4.54-5.7-4.61-5.83-14.29-3.47-20.67s7.91-16.65,7.77-30.52a28.38,28.38,0,0,0-9.81-21.7,55.59,55.59,0,0,1-5.76,3.58v0l-.85.45-.36.2h0a61.69,61.69,0,0,1-12.14,4.68c-.37,7-6,8.52-10.52,9a31.72,31.72,0,0,1-7.9,0c-4.56-.4-10.19-2-10.53-9.06a60.14,60.14,0,0,1-11.48-4.72h0l-.32-.18-1-.56v0a56.29,56.29,0,0,1-5.69-3.71,28.34,28.34,0,0,0-10.2,22c-.14,13.87,5.41,24.14,7.77,30.52s2.36,16.23-3.47,20.67c-4.79,3.65-14.14,3.68-17.31,3.57.36,1.47.73,2.87,1.12,4.19s.75,2.4,1.14,3.48,0,1.56-.46,1.72a44.55,44.55,0,0,0,4.08,8.1c6.09,9.3,13.69,10.56,21.16,8.61,0,0-.87-4.58-1-6.31a.83.83,0,0,1,.79-.87.85.85,0,0,1,.87.79,55.48,55.48,0,0,0,1.35,7.3,19.26,19.26,0,0,0,6.63,1.26,12.79,12.79,0,0,0,4.78-.85s1.23-5.57,1.52-7.71a.86.86,0,0,1,.87-.79.82.82,0,0,1,.79.87c-.13,1.71-.93,6.31-.93,6.31a9.85,9.85,0,0,0,13.34-8.45h17.52c6.07,9.15,13.63,10.39,21,8.45,0,0-.87-4.58-1-6.31a.83.83,0,0,1,.79-.87.85.85,0,0,1,.87.79,55.48,55.48,0,0,0,1.35,7.3,19.26,19.26,0,0,0,6.63,1.26,12.79,12.79,0,0,0,4.78-.85s1.23-5.57,1.52-7.71a.86.86,0,0,1,.87-.79.82.82,0,0,1,.79.87c-.13,1.71-.93,6.31-.93,6.31,3.13,1.48,8.92.62,11.75-3.78,6.46,2.84,14.16,0,13.46-10.1s-10.84-14.93-10.84-14.93l0,0v0l.06-.15,0,0,.1-.26,0-.12.1-.26.06-.15.16-.44.07-.2.13-.36.09-.25.2-.59.09-.27.15-.46.06-.19h0a81.3,81.3,0,0,0-9.8-1.67C248.36,271.62,247.86,274.47,247.31,277.36Zm-58.61,16.5h0a1,1,0,0,1-1-1c-.21-9.18-9.5-14-9.59-14a1,1,0,0,1-.55-1.13c1.3-6.71,2.39-13.32,3.24-19.64a1,1,0,1,1,2.06.28c-.82,6.13-1.87,12.52-3.12,19,2.37,1.38,9.84,6.46,10,15.43A1,1,0,0,1,188.7,293.86Zm16.57-.55a1,1,0,0,1-1.42-.4,52.19,52.19,0,0,1-3.42-7.55c-2.21-6-4.11-14.85-5.82-27a1,1,0,0,1,2.06-.29c1.66,11.86,3.58,20.82,5.71,26.61a50.18,50.18,0,0,0,3.28,7.25A1,1,0,0,1,205.27,293.31Z" transform="translate(-15.74 -12.1)"/><path class="cls-5" d="M119.2,300.47l-.25.13Z" transform="translate(-15.74 -12.1)"/><path class="cls-5" d="M106.31,300.14l-.2-.1Z" transform="translate(-15.74 -12.1)"/><path class="cls-5" d="M105.9,299.93l-.17-.09Z" transform="translate(-15.74 -12.1)"/><path class="cls-5" d="M105.56,299.74l-.14-.08Z" transform="translate(-15.74 -12.1)"/><path class="cls-5" d="M106.77,300.36l-.22-.1Z" transform="translate(-15.74 -12.1)"/><path class="cls-5" d="M119.65,300.23l-.23.13Z" transform="translate(-15.74 -12.1)"/><path class="cls-5" d="M120,300l-.2.12Z" transform="translate(-15.74 -12.1)"/><path class="cls-5" d="M105.28,299.57l-.11-.07Z" transform="translate(-15.74 -12.1)"/><path class="cls-5" d="M121,299.29l0,0Z" transform="translate(-15.74 -12.1)"/><path class="cls-5" d="M120.8,299.45l-.11.09Z" transform="translate(-15.74 -12.1)"/><path class="cls-5" d="M120.93,299.34l-.08.07Z" transform="translate(-15.74 -12.1)"/><path class="cls-5" d="M132.8,285.36c-.54-1.39-1-2.94-1.47-4.58a22.76,22.76,0,0,0-7.66-6.48l0-.07a1,1,0,0,1-.68-1.29c.19-.64.47-1.61.77-2.82a118.45,118.45,0,0,0-24.37-1.91,156,156,0,0,0-28.51,3.55c1.07,14.75,9.42,25.9,23.28,28.73,6.8,1.39,10.66-1.19,10.66-1.19s-1.13-5.31-1.31-7.16a.83.83,0,1,1,1.65-.19c.67,4.11,1.7,8.43,1.71,8.47a16,16,0,0,0,6.46,1.39,12.88,12.88,0,0,0,5.47-1.15c0-.05,1.49-6.72,1.78-8.66a.84.84,0,0,1,.92-.73.83.83,0,0,1,.73.92c-.37,2.78-1.28,7.1-1.28,7.1q.45.2.91.36l.3.1.62.19.35.09.58.13.36.07.58.08.35,0,.64,0h.27c.3,0,.6,0,.89,0l.17,0c.24,0,.47-.06.7-.11l.3-.07.55-.14.32-.11.51-.19.31-.13.5-.26.27-.15c.19-.12.37-.24.55-.38l.17-.12a7.32,7.32,0,0,0,.66-.58l.17-.18c.15-.16.3-.32.44-.49l.2-.27.23-.33a9.05,9.05,0,0,0,1.09-2.24,14,14,0,0,0,.55-5.32,15.41,15.41,0,0,0-.34-2.28c0-.18-.08-.36-.13-.54A1.4,1.4,0,0,1,132.8,285.36Z" transform="translate(-15.74 -12.1)"/><path class="cls-5" d="M104.92,299.34l0,0Z" transform="translate(-15.74 -12.1)"/><path class="cls-5" d="M105.06,299.44l-.08,0Z" transform="translate(-15.74 -12.1)"/><path class="cls-5" d="M120.61,299.6l-.14.11Z" transform="translate(-15.74 -12.1)"/><path class="cls-5" d="M120.35,299.79l-.17.12Z" transform="translate(-15.74 -12.1)"/><path class="cls-5" d="M159.61,303.12l0,0Z" transform="translate(-15.74 -12.1)"/><path class="cls-5" d="M161.08,303.79l-.23-.1Z" transform="translate(-15.74 -12.1)"/><path class="cls-5" d="M159.77,303.2l-.09,0Z" transform="translate(-15.74 -12.1)"/><path class="cls-5" d="M160.3,303.46l-.16-.08Z" transform="translate(-15.74 -12.1)"/><path class="cls-5" d="M160.66,303.62l-.2-.09Z" transform="translate(-15.74 -12.1)"/><path class="cls-5" d="M227.93,303.46l-.17-.08Z" transform="translate(-15.74 -12.1)"/><path class="cls-5" d="M160,303.32l-.13-.06Z" transform="translate(-15.74 -12.1)"/><path class="cls-5" d="M242.9,303.08l0,0Z" transform="translate(-15.74 -12.1)"/><path class="cls-5" d="M229.2,304l-.24-.09Z" transform="translate(-15.74 -12.1)"/><path class="cls-5" d="M242,303.73l-.29.16Z" transform="translate(-15.74 -12.1)"/><path class="cls-5" d="M241.63,303.94a9.63,9.63,0,0,1-1,.44A9.63,9.63,0,0,0,241.63,303.94Z" transform="translate(-15.74 -12.1)"/><path class="cls-5" d="M242.55,303.36l-.15.11Z" transform="translate(-15.74 -12.1)"/><path class="cls-5" d="M242.85,303.12l-.07.06Z" transform="translate(-15.74 -12.1)"/><path class="cls-5" d="M228.3,303.62l-.2-.09Z" transform="translate(-15.74 -12.1)"/><path class="cls-5" d="M228.72,303.79l-.23-.1Z" transform="translate(-15.74 -12.1)"/><path class="cls-5" d="M227.64,303.32l-.13-.06Z" transform="translate(-15.74 -12.1)"/><path class="cls-5" d="M227.41,303.2l-.09,0Z" transform="translate(-15.74 -12.1)"/><path class="cls-5" d="M227.25,303.12l0,0Z" transform="translate(-15.74 -12.1)"/><path class="cls-5" d="M175.26,303.08l0,0Z" transform="translate(-15.74 -12.1)"/><path class="cls-5" d="M242.3,303.54l-.2.13Z" transform="translate(-15.74 -12.1)"/><path class="cls-5" d="M242.73,303.22l-.11.09Z" transform="translate(-15.74 -12.1)"/><path class="cls-5" d="M174.67,303.54l-.2.13Z" transform="translate(-15.74 -12.1)"/><path class="cls-5" d="M174.36,303.73l-.29.16Z" transform="translate(-15.74 -12.1)"/><path class="cls-5" d="M174,303.94a9.63,9.63,0,0,1-1,.44A9.63,9.63,0,0,0,174,303.94Z" transform="translate(-15.74 -12.1)"/><path class="cls-5" d="M161.56,304l-.24-.09Z" transform="translate(-15.74 -12.1)"/><path class="cls-5" d="M175.21,303.12l-.07.06Z" transform="translate(-15.74 -12.1)"/><path class="cls-5" d="M175.1,303.22l-.11.09Z" transform="translate(-15.74 -12.1)"/><path class="cls-5" d="M174.91,303.36l-.15.11Z" transform="translate(-15.74 -12.1)"/><path class="cls-6" d="M232,191.17a43.63,43.63,0,0,1-9.7,9.34,28.38,28.38,0,0,1,9.81,21.7c.14,13.87-5.41,24.14-7.77,30.52s-2.23,16.07,3.47,20.67c5.36,4.34,14.33,4.59,17.34,4.54a1,1,0,0,1,0-.23,292,292,0,0,0,5.43-44.65,1.06,1.06,0,0,1,1.08-1,1,1,0,0,1,1,1.08,279.75,279.75,0,0,1-3.8,35.66,81.3,81.3,0,0,1,9.8,1.67c2.84-8.89,8-31.11-6.91-42.67.25-22.12-3.24-34.73-5-39.71a67.83,67.83,0,0,1-15,2.66Z" transform="translate(-15.74 -12.1)"/><path class="cls-7" d="M134.76,284.65c-.39-1.08-.78-2.24-1.14-3.48s-.76-2.72-1.12-4.19c-4.76-19.54-6.69-50.64-6.71-51a1,1,0,0,0-2.08.13c0,.63.41,6.67,1.21,14.89a28,28,0,0,0-12.4-11.9,1,1,0,1,0-.84,1.9c.11.05,11.49,5.2,13.49,17.31,1.38,8.37-.2,17-1.38,21.81-.3,1.21-.58,2.19-.77,2.82a1,1,0,0,0,.68,1.29h0a1,1,0,0,0,.3,0,1,1,0,0,0,1-.74,69.47,69.47,0,0,0,2.41-12,167.28,167.28,0,0,0,3.81,18.89l.1.36c.46,1.64.92,3.19,1.47,4.58a1.4,1.4,0,0,0,1.25,1l.2,0h0C134.78,286.2,135.1,285.58,134.76,284.65Z" transform="translate(-15.74 -12.1)"/><path class="cls-7" d="M179.67,277.36c1.25-6.5,2.3-12.89,3.12-19a1,1,0,1,0-2.06-.28c-.85,6.32-1.94,12.93-3.24,19.64a1,1,0,0,0,.55,1.13c.09,0,9.38,4.83,9.59,14a1,1,0,0,0,1,1h0a1,1,0,0,0,1-1.06C189.51,283.82,182,278.75,179.67,277.36Z" transform="translate(-15.74 -12.1)"/><path class="cls-7" d="M205.67,291.89a50.18,50.18,0,0,1-3.28-7.25c-2.13-5.79-4-14.74-5.71-26.61a1,1,0,0,0-2.06.29c1.71,12.18,3.61,21,5.82,27a52.19,52.19,0,0,0,3.42,7.55,1,1,0,0,0,1.81-1Z" transform="translate(-15.74 -12.1)"/><path class="cls-7" d="M245.68,278.84c.09,0,9.38,4.83,9.59,14a12.24,12.24,0,0,1-.29,3.06,1,1,0,0,0,.78,1.25l.24,0a1,1,0,0,0,1-.8,14.3,14.3,0,0,0,.35-3.58c-.2-9-7.67-14-10-15.43.56-2.89,1.06-5.74,1.53-8.57a279.75,279.75,0,0,0,3.8-35.66,1,1,0,0,0-1-1.08,1.06,1.06,0,0,0-1.08,1,292,292,0,0,1-5.43,44.65,1.13,1.13,0,0,0,.56,1.13Z" transform="translate(-15.74 -12.1)"/><path class="cls-7" d="M104.26,291.21a.84.84,0,0,0-.73.92c.18,1.84,1.31,7.16,1.31,7.16l0,0,0,0,.07,0,.08,0,.1.07.11.07.14.08.14.08.17.1.17.09.21.11.2.1.24.12.22.1.12.06h0s-1-4.35-1.71-8.47A.85.85,0,0,0,104.26,291.21Z" transform="translate(-15.74 -12.1)"/><path class="cls-7" d="M121.53,291.27a.84.84,0,0,0-.92.73c-.3,1.94-1.77,8.61-1.78,8.66h0l.12-.06.25-.12.22-.11.23-.13.18-.11.2-.12.15-.1.17-.12.12-.08.14-.11.08-.06.11-.09.05,0,.08-.07,0,0,0,0s.91-4.32,1.28-7.1A.83.83,0,0,0,121.53,291.27Z" transform="translate(-15.74 -12.1)"/><path class="cls-7" d="M159.37,295.9a.83.83,0,0,0-.79.87c.08,1.73,1,6.31,1,6.31l0,0,0,0,.07,0,.09,0,.1.05.13.06.13.06.16.08.16.07.2.09.19.08.23.1.24.09.24.09h0a55.48,55.48,0,0,1-1.35-7.3A.85.85,0,0,0,159.37,295.9Z" transform="translate(-15.74 -12.1)"/><path class="cls-7" d="M175.4,295.9a.86.86,0,0,0-.87.79c-.29,2.13-1.52,7.69-1.52,7.71h0a9.63,9.63,0,0,0,1-.44l.09,0,.29-.16.1-.06.2-.13.09-.06.15-.11.07-.05.11-.09,0,0,.07-.06,0,0,0,0s.8-4.6.93-6.31A.82.82,0,0,0,175.4,295.9Z" transform="translate(-15.74 -12.1)"/><path class="cls-7" d="M227,295.9a.83.83,0,0,0-.79.87c.08,1.73,1,6.31,1,6.31l0,0,0,0,.07,0,.09,0,.1.05.13.06.13.06.17.08.16.07.2.09.19.08.23.1.24.09.24.09h0a55.48,55.48,0,0,1-1.35-7.3A.85.85,0,0,0,227,295.9Z" transform="translate(-15.74 -12.1)"/><path class="cls-7" d="M243,295.9a.86.86,0,0,0-.87.79c-.29,2.13-1.52,7.69-1.52,7.71h0a9.63,9.63,0,0,0,1-.44l.09,0,.29-.16.1-.06.2-.13.09-.06.15-.11.07-.05.11-.09,0,0,.07-.06,0,0,0,0s.8-4.6.93-6.31A.82.82,0,0,0,243,295.9Z" transform="translate(-15.74 -12.1)"/><path class="cls-8" d="M162.72,204.65h0l-.32-.18Z" transform="translate(-15.74 -12.1)"/><path class="cls-8" d="M155.7,200.18a56.29,56.29,0,0,0,5.69,3.71V189.7a51.69,51.69,0,0,1-8.22,1.08,60,60,0,0,1-6.49-.06l-.14.44A44.6,44.6,0,0,0,155.7,200.18Z" transform="translate(-15.74 -12.1)"/><path class="cls-9" d="M216.5,204.1a55.59,55.59,0,0,0,5.76-3.58,43.63,43.63,0,0,0,9.7-9.34l-.3-.42a59.65,59.65,0,0,1-6.15,0,53.13,53.13,0,0,1-9-1.25Z" transform="translate(-15.74 -12.1)"/><path class="cls-9" d="M215.29,204.76l.36-.2-.36.19Z" transform="translate(-15.74 -12.1)"/><path class="cls-10" d="M203.16,209.28c0,.05,0,.1,0,.15a61.69,61.69,0,0,0,12.14-4.68l.36-.19.85-.45V189.53c-1.93-.42-3.42-.81-4.31-.94a27.47,27.47,0,0,1-9.29,4.52C203,195.25,203.42,203.13,203.16,209.28Z" transform="translate(-15.74 -12.1)"/><path class="cls-11" d="M161.39,203.89v0l1,.56.32.18a60.14,60.14,0,0,0,11.48,4.72s0-.06,0-.09c-.3-7.17.3-16.55.3-16.58a26.49,26.49,0,0,1-8-4.11c-1,.14-2.78.63-5.11,1.11Z" transform="translate(-15.74 -12.1)"/><path class="cls-12" d="M182.14,205.49c.14,4.57,2.69,5.57,4.75,5.82a10.14,10.14,0,0,0,3.56,0c2-.3,4.48-1.22,4.73-5.5a3.3,3.3,0,0,1-.59.06,3.09,3.09,0,1,1,0-6.17,3.26,3.26,0,0,1,.62.06c0-2.11-.08-4-.12-5.15a56,56,0,0,1-11.59,0c-.43,0-.85-.11-1.27-.17C182.18,196.59,182,201.91,182.14,205.49Z" transform="translate(-15.74 -12.1)"/><path class="cls-13" d="M174.19,209.28s0,.06,0,.09c.34,7.1,6,8.66,10.53,9.06a31.72,31.72,0,0,0,7.9,0c4.53-.48,10.15-2,10.52-9,0-.05,0-.1,0-.15.26-6.15-.14-14-.26-16.17a44.26,44.26,0,0,1-7.73,1.49h-.06c0,1.11.09,3,.12,5.15a3.07,3.07,0,0,1,0,6.05c-.25,4.28-2.72,5.2-4.73,5.5a10.14,10.14,0,0,1-3.56,0c-2.06-.26-4.62-1.25-4.75-5.82-.11-3.58,0-8.9.1-11.05a42,42,0,0,1-7.76-1.73S173.89,202.1,174.19,209.28Z" transform="translate(-15.74 -12.1)"/><path class="cls-14" d="M191.46,202.78a3.11,3.11,0,0,0,3.14,3.09,3.3,3.3,0,0,0,.59-.06,3.07,3.07,0,0,0,0-6.05,3.26,3.26,0,0,0-.62-.06A3.11,3.11,0,0,0,191.46,202.78Z" transform="translate(-15.74 -12.1)"/><path class="cls-7" d="M235.39,29.64c-1.67-4.91-5.78-3.81-8.66-.94a27.65,27.65,0,0,0-2.09,3L221.91,37l.11-.28c.12-.29.25-.6.38-.9-.38.8-.64,1.4-.75,1.66a144.17,144.17,0,0,1,16,4.11A67.75,67.75,0,0,0,235.39,29.64Z" transform="translate(-15.74 -12.1)"/><path class="cls-5" d="M258.43,70.48c-7.92,1.53-15.25,2.27-16.3,1.25-.89-.41-1.56-3.64-2.15-8.17a60.05,60.05,0,0,0-50.63,13.61A61.92,61.92,0,0,0,149,62.5c-39.55.83-63.89,37-56.34,76.32,3,16.9,8.74,28.54,18.89,40.34q1.93,1.2,3.93,2.26c.53.28,1.05.55,1.58.81,12.48,6.15,22.46,8,29.6,8.5a60,60,0,0,0,6.49.06,51.69,51.69,0,0,0,8.22-1.08c2.33-.48,4.1-1,5.11-1.11a26.49,26.49,0,0,0,8,4.11,42,42,0,0,0,7.76,1.73c.42.06.84.12,1.27.17a56,56,0,0,0,11.59,0h.06a44.26,44.26,0,0,0,7.73-1.49,27.47,27.47,0,0,0,9.29-4.52c.89.13,2.38.52,4.31.94a53.13,53.13,0,0,0,9,1.25,59.65,59.65,0,0,0,6.15,0,67.83,67.83,0,0,0,15-2.66,91,91,0,0,0,14.93-5.86q2.83-1.4,5.52-3.07c10.15-11.79,15.9-23.43,18.9-40.34C291.51,110.27,280.18,83.39,258.43,70.48ZM215,81.7c.55-1.38,3.09-1.18,6,.45s4.4,3.66,3.47,4.83-3,.32-5.62-1.14S214.42,83.06,215,81.7Zm2.22,15.6a7.13,7.13,0,1,1-7.13,7.13A7.13,7.13,0,0,1,217.2,97.3Zm-48.57,7.13a7.13,7.13,0,1,1-7.13-7.13A7.13,7.13,0,0,1,168.62,104.42ZM157.69,82.15c2.93-1.62,5.47-1.83,6-.45s-1.25,2.68-3.87,4.14-4.71,2.3-5.62,1.14S154.77,83.78,157.69,82.15ZM149.91,139a1.42,1.42,0,1,1,2.76.63,10.07,10.07,0,0,0-.25,2.24c0,9.72,12,10.77,17.22,10.77a18.56,18.56,0,0,0,9-2.17l.26-.15c4.76-2.7,7.93-7.65,8.81-14-9.22-.4-16.45-4.12-16.45-10.54,0-7,8.11-11.17,18.12-11.17s18.13,4.21,18.13,11.17c0,6.42-7.22,10.14-16.45,10.54.88,6.42,4.07,11.38,8.88,14.08l.11.06a18.52,18.52,0,0,0,9,2.21c5.18,0,17.23-1,17.23-10.77a10,10,0,0,0-.25-2.23,1.42,1.42,0,0,1,2.76-.64,12.83,12.83,0,0,1,.32,2.87c0,8.52-7.5,13.61-20.06,13.61a22.24,22.24,0,0,1-8.59-1.63c-2.25,5-6.43,8-11.42,8s-8.82-2.88-10.93-7.94a22.31,22.31,0,0,1-8.46,1.59c-12.56,0-20.06-5.09-20.06-13.61A12.93,12.93,0,0,1,149.91,139Z" transform="translate(-15.74 -12.1)"/><path class="cls-5" d="M268.51,178.28l-.17.11Z" transform="translate(-15.74 -12.1)"/><path class="cls-5" d="M107,176l0,0Z" transform="translate(-15.74 -12.1)"/><path class="cls-5" d="M271.94,175.85l-.24.18Z" transform="translate(-15.74 -12.1)"/><path class="cls-5" d="M105.43,174.82l-.19-.16Z" transform="translate(-15.74 -12.1)"/><path class="cls-6" d="M149,62.5a61.92,61.92,0,0,1,40.34,14.67A60.05,60.05,0,0,1,240,63.56c-.8-6.13-1.46-14.67-2.36-22a144.17,144.17,0,0,0-16-4.11,176.34,176.34,0,0,0-32.3-3.26,177.62,177.62,0,0,0-30.28,2.87c-1.57-3.51-5.18-8.49-14.81-14.39-11.43-8.17-29-12-31.56-10.09-3.06.93-11.06,15.5-12.5,29.74-1.11,11,.09,17.66,1.09,21.72h0C83.85,80.43,75.6,102.51,79.81,127.67l.06.4c.1.67.21,1.34.33,2,0,.15.06.3.08.44q.18,1,.37,2l.09.41q.21,1,.43,2l.08.35q.24,1,.5,2l.07.27q.27,1,.57,2.05l0,.16a71,71,0,0,0,16.94,29.69l.1.11q.63.65,1.28,1.28l.2.19,1.23,1.15.24.22,1.24,1.09.24.21,1.31,1.08.19.16q.75.59,1.5,1.17l0,0q2.25,1.68,4.62,3.16h0c-10.15-11.79-15.9-23.43-18.89-40.34C85.11,99.5,109.45,63.33,149,62.5ZM115.2,42.84c.48-4,3.2-11.16,5.5-12.69a3.12,3.12,0,0,1,1.87-.48c2.52,0,7.8,1.54,11.41,3.76,5.63,2.94,8.09,6,7.33,9.13-.64,2.66-3.87,4.22-7.94,6.2-1,.49-2.07,1-3.14,1.56-4.69,2.44-8.34,4.06-10.86,4.06a4.6,4.6,0,0,1-1.72-.3C114.85,53,114,49.18,115.2,42.84Z" transform="translate(-15.74 -12.1)"/><path class="cls-6" d="M278,64.61c-3.62,2.13-11.87,4.37-19.58,5.87,21.75,12.91,33.08,39.79,27.6,68.33-3,16.91-8.74,28.54-18.9,40.34h0l1.22-.78.17-.11q1.62-1.07,3.19-2.24l.24-.18c.43-.33.86-.65,1.28-1l.37-.3,1.12-.93.41-.35,1.06-.94.4-.36,1-1,.37-.35,1.08-1.08.29-.3q.6-.62,1.19-1.26l.14-.16a66.23,66.23,0,0,0,5.13-6.39l.06-.08q.56-.8,1.11-1.63l.1-.15q.53-.8,1-1.62l.09-.15q.52-.84,1-1.71l.06-.1a75.91,75.91,0,0,0,7-16.41l0-.12q.31-1,.59-2.1l.05-.21q.27-1,.52-2.07l.06-.26q.24-1,.46-2.08l.06-.28q.22-1.07.41-2.15l0-.24q.21-1.21.4-2.44a77.7,77.7,0,0,0,1.08-12.2C300.11,95.65,292.19,78.21,278,64.61Z" transform="translate(-15.74 -12.1)"/><path class="cls-5" d="M117.65,54.07a4.6,4.6,0,0,0,1.72.3c2.52,0,6.16-1.62,10.86-4.06,1.07-.55,2.13-1.07,3.14-1.56,4.08-2,7.3-3.54,7.94-6.2.76-3.12-1.7-6.19-7.33-9.13-3.6-2.22-8.89-3.76-11.41-3.76a3.12,3.12,0,0,0-1.87.48c-2.3,1.53-5,8.65-5.5,12.69C114,49.18,114.85,53,117.65,54.07Z" transform="translate(-15.74 -12.1)"/><path class="cls-15" d="M221.91,37l2.73-5.32.58-1.12a12,12,0,0,1,1.51-1.83c2.88-2.87,7-4,8.66.94a67.75,67.75,0,0,1,2.22,11.93c.9,7.32,1.56,15.86,2.36,22,.59,4.54,1.26,7.76,2.15,8.17,1,1,8.38.28,16.3-1.25,7.71-1.49,16-3.74,19.58-5.87h0A4.4,4.4,0,0,0,279.79,63c1-2.14-6.33-13.85-17-23.59C251.41,29.17,240.67,21,233.93,22.62c-4.73,1.14-9.24,7.87-11.54,13.17-.13.31-.26.61-.38.9Z" transform="translate(-15.74 -12.1)"/><path class="cls-16" d="M154.37,104.42a7.13,7.13,0,1,0,7.13-7.13A7.13,7.13,0,0,0,154.37,104.42Zm10,0a2.84,2.84,0,1,1-2.84-2.84A2.84,2.84,0,0,1,164.34,104.42Z" transform="translate(-15.74 -12.1)"/><path class="cls-1" d="M158.65,104.42a2.84,2.84,0,1,0,2.84-2.84A2.84,2.84,0,0,0,158.65,104.42Z" transform="translate(-15.74 -12.1)"/><path class="cls-16" d="M217.2,111.55a7.13,7.13,0,1,0-7.13-7.13A7.13,7.13,0,0,0,217.2,111.55Zm0-10a2.84,2.84,0,1,1-2.84,2.84A2.84,2.84,0,0,1,217.2,101.58Z" transform="translate(-15.74 -12.1)"/><circle class="cls-1" cx="201.45" cy="92.32" r="2.84"/><path class="cls-16" d="M159.85,85.83c2.62-1.46,4.42-2.77,3.87-4.14s-3.09-1.18-6,.45-4.4,3.66-3.47,4.83S157.22,87.29,159.85,85.83Z" transform="translate(-15.74 -12.1)"/><path class="cls-16" d="M218.85,85.83c2.62,1.45,4.7,2.3,5.62,1.14s-.55-3.2-3.47-4.83-5.48-1.83-6-.45S216.23,84.38,218.85,85.83Z" transform="translate(-15.74 -12.1)"/><path class="cls-17" d="M189.34,141.62a19.66,19.66,0,0,1-11.24,12.26c2.11,5.07,6,7.94,10.93,7.94s9.17-3,11.42-8A19.68,19.68,0,0,1,189.34,141.62Z" transform="translate(-15.74 -12.1)"/><path class="cls-16" d="M169.64,155.46a22.31,22.31,0,0,0,8.46-1.59,19.66,19.66,0,0,0,11.24-12.26,19.68,19.68,0,0,0,11.11,12.21,22.24,22.24,0,0,0,8.59,1.63c12.56,0,20.06-5.09,20.06-13.61a12.83,12.83,0,0,0-.32-2.87,1.42,1.42,0,0,0-2.76.64,10,10,0,0,1,.25,2.23c0,9.72-12,10.77-17.23,10.77a18.52,18.52,0,0,1-9-2.21l-.11-.06c-4.8-2.7-8-7.66-8.88-14.08,9.23-.4,16.45-4.12,16.45-10.54,0-7-8.11-11.17-18.13-11.17s-18.12,4.21-18.12,11.17c0,6.42,7.22,10.14,16.45,10.54-.88,6.39-4,11.33-8.81,14l-.26.15a18.56,18.56,0,0,1-9,2.17c-5.18,0-17.22-1-17.22-10.77a10.07,10.07,0,0,1,.25-2.24,1.42,1.42,0,1,0-2.76-.63,12.93,12.93,0,0,0-.32,2.87C149.59,150.38,157.08,155.46,169.64,155.46Z" transform="translate(-15.74 -12.1)"/></g></svg>